<?xml version="1.0" encoding="UTF-8" standalone="no"?>
<svg
   xmlns:dc="http://purl.org/dc/elements/1.1/"
   xmlns:cc="http://creativecommons.org/ns#"
   xmlns:rdf="http://www.w3.org/1999/02/22-rdf-syntax-ns#"
   xmlns:svg="http://www.w3.org/2000/svg"
   xmlns="http://www.w3.org/2000/svg"
   id="svg8"
   version="1.1"
   viewBox="0 0 353 250"
   height="250mm"
   width="353mm">
  <defs
     id="defs2" />
  <metadata
     id="metadata5">
    <rdf:RDF>
      <cc:Work
         rdf:about="">
        <dc:format>image/svg+xml</dc:format>
        <dc:type
           rdf:resource="http://purl.org/dc/dcmitype/StillImage" />
        <dc:title></dc:title>
      </cc:Work>
    </rdf:RDF>
  </metadata>
  <g
     transform="translate(0,-47)"
     id="layer1">
    <path
       id="path974-36"
       d="M 304.5,75.150002 C 304.5,292.65 304.5,292.65 304.5,292.65"
       style="fill:none;stroke:#000000;stroke-width:0.08819444;stroke-linecap:butt;stroke-linejoin:miter;stroke-miterlimit:4;stroke-dasharray:none;stroke-opacity:1" />
    <path
       id="path974-90"
       d="m 282.75,75.150002 c 0,217.499998 0,217.499998 0,217.499998"
       style="fill:none;stroke:#000000;stroke-width:0.08819444;stroke-linecap:butt;stroke-linejoin:miter;stroke-miterlimit:4;stroke-dasharray:none;stroke-opacity:1" />
    <path
       id="path974-62"
       d="M 261,75.150002 C 261,292.65 261,292.65 261,292.65"
       style="fill:none;stroke:#000000;stroke-width:0.08819444;stroke-linecap:butt;stroke-linejoin:miter;stroke-miterlimit:4;stroke-dasharray:none;stroke-opacity:1" />
    <path
       id="path974-6"
       d="m 239.25,75.150002 c 0,217.499998 0,217.499998 0,217.499998"
       style="fill:none;stroke:#000000;stroke-width:0.08819444;stroke-linecap:butt;stroke-linejoin:miter;stroke-miterlimit:4;stroke-dasharray:none;stroke-opacity:1" />
    <path
       id="path974-9"
       d="M 226.2,75.150002 C 226.2,292.65 226.2,292.65 226.2,292.65"
       style="fill:none;stroke:#000000;stroke-width:0.08819444;stroke-linecap:butt;stroke-linejoin:miter;stroke-miterlimit:4;stroke-dasharray:none;stroke-opacity:1" />
    <path
       id="path974-88"
       d="m 204.45,75.150002 c 0,217.499998 0,217.499998 0,217.499998"
       style="fill:none;stroke:#000000;stroke-width:0.08819444;stroke-linecap:butt;stroke-linejoin:miter;stroke-miterlimit:4;stroke-dasharray:none;stroke-opacity:1" />
    <path
       id="path974-8"
       d="m 169.65,75.150002 c 0,217.499998 0,217.499998 0,217.499998"
       style="fill:none;stroke:#000000;stroke-width:0.08819444;stroke-linecap:butt;stroke-linejoin:miter;stroke-miterlimit:4;stroke-dasharray:none;stroke-opacity:1" />
    <path
       id="path974-3"
       d="M 147.9,75.150002 C 147.9,292.65 147.9,292.65 147.9,292.65"
       style="fill:none;stroke:#000000;stroke-width:0.08819444;stroke-linecap:butt;stroke-linejoin:miter;stroke-miterlimit:4;stroke-dasharray:none;stroke-opacity:1" />
    <path
       id="path974-0"
       d="M 113.1,75.150002 C 113.1,292.65 113.1,292.65 113.1,292.65"
       style="fill:none;stroke:#000000;stroke-width:0.08819444;stroke-linecap:butt;stroke-linejoin:miter;stroke-miterlimit:4;stroke-dasharray:none;stroke-opacity:1" />
    <path
       id="path974-2"
       d="M 91.35,75.150002 C 91.35,292.65 91.35,292.65 91.35,292.65"
       style="fill:none;stroke:#000000;stroke-width:0.08819444;stroke-linecap:butt;stroke-linejoin:miter;stroke-miterlimit:4;stroke-dasharray:none;stroke-opacity:1" />
    <path
       id="path974-5"
       d="M 56.55,75.150002 C 56.55,292.65 56.55,292.65 56.55,292.65"
       style="fill:none;stroke:#000000;stroke-width:0.08819444;stroke-linecap:butt;stroke-linejoin:miter;stroke-miterlimit:4;stroke-dasharray:none;stroke-opacity:1" />
    <path
       id="path974"
       d="M 21.75,75.150002 C 21.75,292.65 21.75,292.65 21.75,292.65"
       style="fill:none;stroke:#000000;stroke-width:0.08819444;stroke-linecap:butt;stroke-linejoin:miter;stroke-miterlimit:4;stroke-dasharray:none;stroke-opacity:1" />
    <path
       id="path829-72"
       d="M 8.7000001,283.95 C 348,283.95 348,283.95 348,283.95"
       style="fill:none;stroke:#000000;stroke-width:0.08819444;stroke-linecap:butt;stroke-linejoin:miter;stroke-miterlimit:4;stroke-dasharray:none;stroke-opacity:1" />
    <path
       id="path829-667"
       d="M 8.7000001,275.25 C 348,275.25 348,275.25 348,275.25"
       style="fill:none;stroke:#000000;stroke-width:0.08819444;stroke-linecap:butt;stroke-linejoin:miter;stroke-miterlimit:4;stroke-dasharray:none;stroke-opacity:1" />
    <path
       id="path829-94"
       d="M 8.7000001,266.55 C 348,266.55 348,266.55 348,266.55"
       style="fill:none;stroke:#000000;stroke-width:0.08819444;stroke-linecap:butt;stroke-linejoin:miter;stroke-miterlimit:4;stroke-dasharray:none;stroke-opacity:1" />
    <path
       id="path829-9"
       d="M 8.7000001,257.85 C 348,257.85 348,257.85 348,257.85"
       style="fill:none;stroke:#000000;stroke-width:0.08819444;stroke-linecap:butt;stroke-linejoin:miter;stroke-miterlimit:4;stroke-dasharray:none;stroke-opacity:1" />
    <path
       id="path829-0"
       d="M 8.7000001,249.15 C 348,249.15 348,249.15 348,249.15"
       style="fill:none;stroke:#000000;stroke-width:0.08819444;stroke-linecap:butt;stroke-linejoin:miter;stroke-miterlimit:4;stroke-dasharray:none;stroke-opacity:1" />
    <path
       id="path829-22"
       d="M 8.7000001,240.45 C 348,240.45 348,240.45 348,240.45"
       style="fill:none;stroke:#000000;stroke-width:0.08819444;stroke-linecap:butt;stroke-linejoin:miter;stroke-miterlimit:4;stroke-dasharray:none;stroke-opacity:1" />
    <path
       id="path829-20"
       d="M 8.7000001,231.75 C 348,231.75 348,231.75 348,231.75"
       style="fill:none;stroke:#000000;stroke-width:0.08819444;stroke-linecap:butt;stroke-linejoin:miter;stroke-miterlimit:4;stroke-dasharray:none;stroke-opacity:1" />
    <path
       id="path829-8"
       d="M 8.7000001,223.05 C 348,223.05 348,223.05 348,223.05"
       style="fill:none;stroke:#000000;stroke-width:0.08819444;stroke-linecap:butt;stroke-linejoin:miter;stroke-miterlimit:4;stroke-dasharray:none;stroke-opacity:1" />
    <path
       id="path829-2"
       d="M 8.7000001,214.35 C 348,214.35 348,214.35 348,214.35"
       style="fill:none;stroke:#000000;stroke-width:0.08819444;stroke-linecap:butt;stroke-linejoin:miter;stroke-miterlimit:4;stroke-dasharray:none;stroke-opacity:1" />
    <path
       id="path829-56"
       d="M 8.7000001,205.65 C 348,205.65 348,205.65 348,205.65"
       style="fill:none;stroke:#000000;stroke-width:0.08819444;stroke-linecap:butt;stroke-linejoin:miter;stroke-miterlimit:4;stroke-dasharray:none;stroke-opacity:1" />
    <path
       id="path829-76"
       d="M 8.7000001,196.95 C 348,196.95 348,196.95 348,196.95"
       style="fill:none;stroke:#000000;stroke-width:0.08819444;stroke-linecap:butt;stroke-linejoin:miter;stroke-miterlimit:4;stroke-dasharray:none;stroke-opacity:1" />
    <path
       id="path829-1"
       d="M 8.7000001,188.25 C 348,188.25 348,188.25 348,188.25"
       style="fill:none;stroke:#000000;stroke-width:0.08819444;stroke-linecap:butt;stroke-linejoin:miter;stroke-miterlimit:4;stroke-dasharray:none;stroke-opacity:1" />
    <path
       id="path829-4"
       d="M 8.7000001,179.55 C 348,179.55 348,179.55 348,179.55"
       style="fill:none;stroke:#000000;stroke-width:0.08819444;stroke-linecap:butt;stroke-linejoin:miter;stroke-miterlimit:4;stroke-dasharray:none;stroke-opacity:1" />
    <path
       id="path829-53"
       d="M 8.7000001,170.85 C 348,170.85 348,170.85 348,170.85"
       style="fill:none;stroke:#000000;stroke-width:0.08819444;stroke-linecap:butt;stroke-linejoin:miter;stroke-miterlimit:4;stroke-dasharray:none;stroke-opacity:1" />
    <path
       id="path829-5"
       d="M 8.7000001,162.15 C 348,162.15 348,162.15 348,162.15"
       style="fill:none;stroke:#000000;stroke-width:0.08819444;stroke-linecap:butt;stroke-linejoin:miter;stroke-miterlimit:4;stroke-dasharray:none;stroke-opacity:1" />
    <path
       id="path829-345"
       d="M 8.7000001,153.45 C 348,153.45 348,153.45 348,153.45"
       style="fill:none;stroke:#000000;stroke-width:0.08819444;stroke-linecap:butt;stroke-linejoin:miter;stroke-miterlimit:4;stroke-dasharray:none;stroke-opacity:1" />
    <path
       id="path829-34"
       d="M 8.7000001,144.75 C 348,144.75 348,144.75 348,144.75"
       style="fill:none;stroke:#000000;stroke-width:0.08819444;stroke-linecap:butt;stroke-linejoin:miter;stroke-miterlimit:4;stroke-dasharray:none;stroke-opacity:1" />
    <path
       id="path829-66"
       d="M 8.7000001,136.05 C 348,136.05 348,136.05 348,136.05"
       style="fill:none;stroke:#000000;stroke-width:0.08819444;stroke-linecap:butt;stroke-linejoin:miter;stroke-miterlimit:4;stroke-dasharray:none;stroke-opacity:1" />
    <path
       id="path829-79"
       d="M 8.7000001,127.35 C 348,127.35 348,127.35 348,127.35"
       style="fill:none;stroke:#000000;stroke-width:0.08819444;stroke-linecap:butt;stroke-linejoin:miter;stroke-miterlimit:4;stroke-dasharray:none;stroke-opacity:1" />
    <path
       id="path829-6"
       d="M 8.7000001,118.65 C 348,118.65 348,118.65 348,118.65"
       style="fill:none;stroke:#000000;stroke-width:0.08819444;stroke-linecap:butt;stroke-linejoin:miter;stroke-miterlimit:4;stroke-dasharray:none;stroke-opacity:1" />
    <path
       id="path829-7"
       d="M 8.7000001,109.95 C 348,109.95 348,109.95 348,109.95"
       style="fill:none;stroke:#000000;stroke-width:0.08819444;stroke-linecap:butt;stroke-linejoin:miter;stroke-miterlimit:4;stroke-dasharray:none;stroke-opacity:1" />
    <path
       id="path829-3"
       d="M 8.7000001,101.25 C 348,101.25 348,101.25 348,101.25"
       style="fill:none;stroke:#000000;stroke-width:0.08819444;stroke-linecap:butt;stroke-linejoin:miter;stroke-miterlimit:4;stroke-dasharray:none;stroke-opacity:1" />
    <path
       id="path829"
       d="m 8.7,92.550002 c 339.3,0 339.3,0 339.3,0"
       style="fill:none;stroke:#000000;stroke-width:0.08819444;stroke-linecap:butt;stroke-linejoin:miter;stroke-miterlimit:4;stroke-dasharray:none;stroke-opacity:1" />
    <path
       id="path827"
       d="m 8.7,83.850002 c 339.3,0 339.3,0 339.3,0"
       style="fill:none;stroke:#000000;stroke-width:0.35299999;stroke-linecap:butt;stroke-linejoin:miter;stroke-miterlimit:4;stroke-dasharray:none;stroke-opacity:1" />
    <path
       id="path819"
       d="M 8.7,75.150002 C 8.7,292.65 8.7,292.65 8.7,292.65 H 348 V 75.150002 Z"
       style="fill:none;stroke:#000000;stroke-width:0.35277778;stroke-linecap:butt;stroke-linejoin:miter;stroke-miterlimit:4;stroke-dasharray:none;stroke-opacity:1" />
    <g
       id="flowRoot1043"
       style="font-style:normal;font-weight:normal;font-size:21.33333397px;line-height:1.25;font-family:sans-serif;text-align:center;letter-spacing:0px;word-spacing:0px;text-anchor:middle;fill:#000000;fill-opacity:1;stroke:none"
       transform="matrix(0.26458333,0,0,0.26458333,0,47)"
       aria-label="摘要">
      <path
         id="path1039"
         style="font-style:normal;font-variant:normal;font-weight:normal;font-stretch:normal;font-size:13.33333397px;font-family:'Meiryo UI';-inkscape-font-specification:'Meiryo UI'"
         d="m 1227.5625,124.36458 v 0.19532 h -0.8464 v -3.17058 h 1.3217 v -1.15885 h -1.7513 v -0.67708 h 1.7513 v -1.11329 h -2.3959 v 7.65625 h -0.9765 v -8.35286 h 1.8424 l -0.6575,-1.79688 h -1.4584 v -0.76171 h 3.5482 v -1.02865 h 1.0091 v 1.02865 h 3.6589 v 0.76171 h -1.3542 l -0.7812,1.79688 h 1.875 v 7.27865 q 0,0.39062 -0.3451,0.66406 -0.3385,0.27344 -0.8073,0.27344 h -1.4323 l -0.1041,-0.8724 h 1.1523 q 0.5469,0 0.5469,-0.47526 v -6.17188 h -2.4349 v 1.11329 h 1.8229 v 0.67708 h -1.8229 v 1.15885 h 1.3607 v 2.97526 z m -0.1107,-6.62109 h 2.0768 l 0.7162,-1.79688 h -3.4245 z m 1.9727,4.27083 h -1.849 v 1.66016 h 1.849 z m -9.2774,-0.33854 -0.2018,-0.88542 q 0.6641,-0.14973 1.875,-0.47526 v -2.85807 h -1.6406 v -0.78776 h 1.6406 v -2.47396 h 1.0221 v 2.47396 h 1.237 v 0.78776 h -1.237 v 2.57162 q 0.8334,-0.24089 1.1589,-0.36459 l 0.1172,0.76172 q -0.3646,0.16927 -1.2761,0.46875 v 4.31641 q 0,0.39713 -0.319,0.63151 -0.319,0.24088 -0.7291,0.24088 h -1.4649 l -0.1237,-0.89843 h 1.1394 q 0.4752,0 0.4752,-0.42318 v -3.54818 q -1.0677,0.31901 -1.6732,0.46224 z" />
      <path
         id="path1041"
         style="font-style:normal;font-variant:normal;font-weight:normal;font-stretch:normal;font-size:13.33333397px;font-family:'Meiryo UI';-inkscape-font-specification:'Meiryo UI'"
         d="m 1237.6276,116.86458 v -1.22395 h -3.9453 v -0.76172 h 12.0117 v 0.76172 h -4.0364 v 1.22395 h 3.2877 v 3.07292 h -6.0351 q -0.1563,0.33854 -0.6511,1.23698 h 7.5977 v 0.80729 h -2.2591 q -0.6511,1.32162 -1.9011,2.23958 2.0508,0.56641 3.4115,1.07422 l -0.599,0.77474 q -1.582,-0.625 -3.7174,-1.28255 -1.0157,0.51432 -2.9753,0.88542 -1.9596,0.37109 -3.4766,0.45573 l -0.1953,-0.77474 q 1.7904,-0.0716 3.3073,-0.3711 1.5235,-0.30599 2.168,-0.54687 -0.293,-0.0911 -0.4948,-0.13021 l -2.3568,-0.4362 q -0.6901,-0.13021 -0.7422,-0.14974 -0.046,-0.026 -0.078,-0.0911 -0.032,-0.0651 -0.032,-0.15625 0,-0.0521 0.026,-0.0911 0.3776,-0.55338 0.8529,-1.39974 h -3.2032 v -0.80729 h 3.6394 q 0.345,-0.66406 0.6054,-1.23698 h -3.3593 v -3.07292 z m 0.9831,-1.22395 v 1.22395 h 2.0768 v -1.22395 z m -0.9831,3.59375 v -1.66016 h -2.1745 v 1.66016 z m 0.9831,-1.66016 v 1.66016 h 2.0768 v -1.66016 z m 5.345,0 h -2.2981 v 1.66016 h 2.2981 z m -3.3203,6.33463 q 1.0482,-0.63802 1.8034,-1.92708 h -4.6289 q -0.4232,0.74219 -0.6836,1.15235 0.9115,0.1888 3.5091,0.77473 z" />
    </g>
    <g
       id="flowRoot1052"
       style="font-style:normal;font-weight:normal;font-size:21.33333397px;line-height:14.9333334px;font-family:sans-serif;text-align:center;letter-spacing:0px;word-spacing:0px;text-anchor:middle;fill:#000000;fill-opacity:1;stroke:none"
       transform="matrix(0.26458333,0,0,0.26458333,0,47)"
       aria-label="請求対象
フラグ
">
      <path
         id="path1044"
         style="font-style:normal;font-variant:normal;font-weight:normal;font-stretch:normal;font-size:13.33333397px;line-height:14.9333334px;font-family:'Meiryo UI';-inkscape-font-specification:'Meiryo UI'"
         d="m 1088.39,112.97708 v -0.70312 h 3.0729 v -0.98307 h -2.5977 v -0.67709 h 2.5977 v -0.91146 h -2.8841 v -0.72265 h 2.8841 v -0.66407 h 1.0221 v 0.66407 h 3.0599 v 0.72265 h -3.0599 v 0.91146 h 2.7865 v 0.67709 h -2.7865 v 0.98307 h 3.3008 v 0.70312 z m -4.2188,-3.39843 v -0.7487 h 3.5417 v 0.7487 z m -0.4752,1.77083 v -0.73568 h 4.3554 v 0.73568 z m 0.4948,1.7513 v -0.72266 h 3.4505 v 0.72266 z m 10.0065,4.72005 h -4.2318 v 2.39584 h -1.0026 v -6.40625 h 6.2109 v 5.46224 q 0,0.39062 -0.2929,0.625 -0.293,0.23437 -0.7227,0.23437 h -1.3477 l -0.098,-0.85937 h 0.9961 q 0.4883,0 0.4883,-0.41667 z m 0,-2.36979 v -0.95052 h -4.2318 v 0.95052 z m -4.2318,1.67318 h 4.2318 v -1.00261 h -4.2318 z m -5.7747,-2.26563 v -0.76171 h 3.4505 v 0.76171 z m 0.6901,4.79818 v 0.48828 h -0.8724 v -4.1862 h 3.6718 v 3.69792 z m 1.875,-2.98177 h -1.823 v 2.25911 h 1.823 z" />
      <path
         id="path1046"
         style="font-style:normal;font-variant:normal;font-weight:normal;font-stretch:normal;font-size:13.33333397px;line-height:14.9333334px;font-family:'Meiryo UI';-inkscape-font-specification:'Meiryo UI'"
         d="m 1102.3613,120.20365 h -1.8229 l -0.1497,-0.92448 h 1.556 q 0.5403,0 0.5403,-0.50782 v -7.36979 h -5.2083 v -0.83984 h 5.2083 v -2.36979 h 1.0482 v 2.36979 h 3.3919 q -0.4101,-0.45573 -1.6536,-1.56901 l 0.6836,-0.54037 q 0.638,0.4948 1.7643,1.53646 l -0.7096,0.57292 h 2.0963 v 0.83984 h -5.5729 v 0.59896 l 0.078,0.26042 q 0.306,1.01562 1.5951,2.54557 1.4909,-1.1263 2.6497,-2.30469 l 0.8008,0.625 q -1.2174,1.17188 -2.8971,2.30469 1.7448,1.88802 3.6198,3.09896 l -0.7227,0.76172 q -1.7448,-1.22396 -3.099,-2.66927 -1.3476,-1.45183 -2.0247,-2.76042 v 5.29297 q 0,0.44271 -0.3711,0.74219 -0.3711,0.30599 -0.8008,0.30599 z m -2.4218,-4.89584 q -0.6706,-1.17838 -1.7253,-2.51953 l 0.8724,-0.47526 q 1.1914,1.52995 1.7773,2.48698 z m -2.7995,3.39844 -0.3776,-0.89844 q 0.9505,-0.29948 2.4804,-0.95703 1.53,-0.65755 2.4284,-1.13932 l 0.2409,0.82031 q -0.5013,0.33854 -2.0508,1.04818 -1.5495,0.70312 -2.7213,1.1263 z" />
      <path
         id="path1048"
         style="font-style:normal;font-variant:normal;font-weight:normal;font-stretch:normal;font-size:13.33333397px;line-height:14.9333334px;font-family:'Meiryo UI';-inkscape-font-specification:'Meiryo UI'"
         d="m 1122.4329,111.82474 h -1.3997 v 7.14844 q 0,0.46224 -0.345,0.77474 -0.3386,0.31901 -0.7878,0.31901 h -2.0638 l -0.1107,-0.88542 h 1.7123 q 0.2278,0 0.3971,-0.13672 0.1758,-0.14323 0.1758,-0.35156 v -6.86849 h -3.1315 v -0.80729 h 3.1315 v -2.67578 h 1.0221 v 2.67578 h 1.3997 z m -6.0807,5.99609 -0.8268,0.625 q -0.4492,-0.63802 -1.53,-1.83593 -1.3802,2.23958 -3.3398,3.57421 l -0.5339,-0.63802 q 2.0899,-1.58203 3.2227,-3.65234 -1.4258,-1.51693 -2.4609,-2.39583 l 0.6705,-0.59896 q 0.7292,0.59245 2.2266,2.07682 0.7357,-1.79687 0.7617,-3.60026 h -3.9583 v -0.80078 h 2.4479 v -2.08333 h 0.9831 v 2.08333 h 2.2265 v 0.80078 h -0.7161 q -0.091,2.3763 -1.0287,4.32943 1.25,1.29557 1.8555,2.11588 z m 2.3958,-1.64713 -0.957,0.35156 q -0.4948,-1.49088 -1.1653,-2.97526 l 0.8789,-0.33854 q 0.638,1.33463 1.2434,2.96224 z" />
      <path
         id="path1050"
         style="font-style:normal;font-variant:normal;font-weight:normal;font-stretch:normal;font-size:13.33333397px;line-height:14.9333334px;font-family:'Meiryo UI';-inkscape-font-specification:'Meiryo UI'"
         d="m 1124.1322,119.68281 -0.3125,-0.6901 q 3.8671,-0.95052 6.2369,-2.55208 -0.2148,-0.55339 -0.4948,-1.08073 -2.3958,1.47135 -5.4296,2.24609 l -0.267,-0.68359 q 1.3412,-0.30599 2.806,-0.92448 1.4714,-0.61849 2.5,-1.32813 -0.2734,-0.4362 -0.5924,-0.79427 -2.3047,1.21745 -4.4987,1.79688 l -0.3386,-0.66407 q 2.3177,-0.61849 4.0495,-1.54948 h -2.3502 v -2.46744 q -0.7813,0.47526 -1.6081,0.85937 l -0.4167,-0.66406 q 2.3698,-0.96354 4.1602,-3.04688 l 1.0481,0.22787 q -0.1888,0.2539 -0.5143,0.57291 h 4.0104 l 0.3907,0.29948 q -0.5404,0.64454 -1.2891,1.41276 h 3.7109 v 2.80599 h -2.9427 q 0.3125,1.06771 1.0091,2.22657 1.3282,-0.82683 2.0834,-1.53646 l 0.7357,0.61198 q -0.8724,0.74219 -2.3959,1.56901 1.0091,1.41927 2.5456,2.53906 l -0.7357,0.70964 q -1.5169,-1.07422 -2.6888,-2.87761 -1.1719,-1.80989 -1.5299,-3.24219 l -1.7188,0.013 q 0.8529,0.91797 1.4974,2.26563 0.6445,1.34115 0.6445,2.19401 0,1.14583 -0.3841,1.65365 -0.3841,0.51432 -0.8463,0.57942 -0.4623,0.0651 -0.8659,0.0651 -0.3971,0 -1.237,-0.013 l -0.1497,-0.85938 h 0.3646 q 0.6901,0 1.0091,-0.013 0.3255,-0.0195 0.5794,-0.16927 0.2604,-0.15625 0.3971,-0.48828 0.1433,-0.33854 0.1433,-0.85287 0,-0.18229 -0.1107,-0.57942 -1.224,0.73567 -2.9818,1.43229 -1.7513,0.69661 -3.2226,0.99609 z m 3.2031,-10.04557 q -0.6315,0.52083 -1.3672,1.01562 h 4.3034 q 0.5208,-0.5664 0.8138,-1.01562 z m 6.6341,1.72526 h -3.3333 v 1.39974 h 3.3333 z m -4.2708,0 h -3.3073 v 1.39974 h 3.3073 z" />
      <path
         id="path1052"
         style="font-style:normal;font-variant:normal;font-weight:normal;font-stretch:normal;font-size:13.33333397px;line-height:14.9333334px;font-family:'Meiryo UI';-inkscape-font-specification:'Meiryo UI'"
         d="m 1103.9368,125.06666 q 0,2.36329 -0.6184,4.69402 -0.6185,2.33072 -2.3829,3.8151 -1.7578,1.48437 -4.4401,1.83594 l -0.2018,-0.98308 q 2.5326,-0.32552 4.3946,-2.12239 1.8684,-1.80339 2.0768,-6.28255 h -6.6472 v -0.95704 z" />
      <path
         id="path1054"
         style="font-style:normal;font-variant:normal;font-weight:normal;font-stretch:normal;font-size:13.33333397px;line-height:14.9333334px;font-family:'Meiryo UI';-inkscape-font-specification:'Meiryo UI'"
         d="m 1112.6999,125.82838 h -6.8815 v -0.91145 h 6.8815 z m 0.3515,2.30469 q -0.052,1.17188 -0.1757,2.05078 -0.1172,0.8724 -0.4818,1.79688 -0.3646,0.92448 -1.1068,1.71875 -0.7357,0.78776 -1.8359,1.22396 -1.1003,0.4427 -2.5977,0.5013 l -0.1302,-0.94401 q 2.4089,-0.0846 3.724,-1.39974 1.3151,-1.32162 1.4518,-4.02995 h -6.4258 v -0.91797 z" />
      <path
         id="path1056"
         style="font-style:normal;font-variant:normal;font-weight:normal;font-stretch:normal;font-size:13.33333397px;line-height:14.9333334px;font-family:'Meiryo UI';-inkscape-font-specification:'Meiryo UI'"
         d="m 1118.2467,124.33099 q -0.1237,0.61849 -0.358,1.33463 h 4.4466 l -0.033,0.90495 q -0.013,0.39063 -0.1562,1.28255 -0.1367,0.89193 -0.3646,1.65365 -0.2279,0.76172 -0.5664,1.54948 -0.332,0.78776 -0.7943,1.47786 -0.4557,0.6836 -1.0677,1.25 -0.612,0.56641 -1.4193,1.00912 -0.8007,0.44271 -1.7447,0.71614 l -0.3842,-0.9375 q 2.4089,-0.72916 3.6784,-2.70833 1.2761,-1.97917 1.569,-5.2474 h -3.4895 q -0.4948,1.26303 -1.1849,2.38282 -0.6836,1.11328 -1.4974,1.85547 l -0.7422,-0.72266 q 1.0612,-1.09375 1.8489,-2.78646 0.7943,-1.69922 1.0742,-3.17057 z m 5.4948,0.53385 -0.7487,0.30599 q -0.4362,-1.00911 -0.931,-1.80338 l 0.6902,-0.33204 q 0.4492,0.69662 0.9895,1.82943 z m -1.608,0.26693 -0.7487,0.33203 q -0.4688,-1.04818 -0.944,-1.82292 l 0.7031,-0.32552 q 0.5664,0.87891 0.9896,1.81641 z" />
    </g>
    <g
       id="flowRoot1027"
       style="font-style:normal;font-weight:normal;font-size:21.33333397px;line-height:1.25;font-family:sans-serif;text-align:center;letter-spacing:0px;word-spacing:0px;text-anchor:middle;fill:#000000;fill-opacity:1;stroke:none"
       transform="matrix(0.26458333,0,0,0.26458333,0,47)"
       aria-label="標準数量">
      <path
         id="path1059"
         style="font-style:normal;font-variant:normal;font-weight:normal;font-stretch:normal;font-size:13.33333397px;font-family:'Meiryo UI';-inkscape-font-specification:'Meiryo UI'"
         d="m 1003.1911,120.13932 q -0.5534,1.51693 -1.6081,3.02735 l -0.612,-0.44922 q 0.625,-0.87891 1.2761,-2.38932 0.651,-1.51042 0.8659,-2.57162 h -1.5691 v -0.78776 h 1.6732 v -2.70833 h 0.9636 v 2.70833 h 0.9244 v 0.78776 h -0.9244 v 0.99609 q 0.4362,0.54688 1.3086,1.30209 l -0.4883,0.77474 q -0.2604,-0.27344 -0.8203,-0.89844 v 6.17839 h -0.9636 z m 4.6419,-3.6914 v -1.04167 h -2.5976 v -0.72266 h 8.3658 v 0.72266 h -2.7213 v 1.04167 h 2.3242 v 2.64323 h -7.6172 v -2.64323 z m 0.8464,-1.04167 v 1.04167 h 1.3541 v -1.04167 z m -0.8464,3.04688 v -1.3737 h -1.3607 v 1.3737 z m 0.8464,-1.3737 v 1.3737 h 1.3541 v -1.3737 z m 3.6523,0 h -1.4518 v 1.3737 h 1.4518 z m -6.3867,3.73698 v -0.73568 h 7.0182 v 0.73568 z m 2.9492,5.22135 h -1.3216 l -0.1172,-0.82682 h 1.0026 q 0.4883,0 0.4883,-0.4362 v -2.1875 h -3.8867 v -0.7487 h 8.7825 v 0.7487 h -3.8997 v 2.53906 q 0,0.42969 -0.293,0.67058 -0.2864,0.24088 -0.7552,0.24088 z m 4.5443,-0.47526 q -0.638,-0.35807 -1.4909,-1.02213 -0.8529,-0.66407 -1.1784,-1.0612 l 0.6836,-0.52735 q 1.0482,1.00261 2.5977,1.90105 z m -8.3529,0 -0.5013,-0.625 q 1.4909,-0.85937 2.4219,-1.94661 l 0.7747,0.47526 q -0.4622,0.54036 -1.3086,1.1914 -0.8463,0.65104 -1.3867,0.90495 z" />
      <path
         id="path1061"
         style="font-style:normal;font-variant:normal;font-weight:normal;font-stretch:normal;font-size:13.33333397px;font-family:'Meiryo UI';-inkscape-font-specification:'Meiryo UI'"
         d="m 1020.3265,126.15495 v -2.26563 h -5.4167 v -0.80078 h 5.4167 v -1.04818 h -1.3477 v -4.74609 q -0.4101,0.53386 -0.7617,0.88542 l -0.5273,-0.47526 q 1.6992,-1.92709 2.3763,-3.64584 l 0.9961,0.23438 q -0.319,0.64453 -0.7878,1.39974 h 2.3047 q 0.4557,-0.8724 0.7096,-1.47136 l 1.0222,0.23438 q -0.1433,0.28646 -0.7813,1.23698 h 2.9297 v 0.76172 h -3.0208 v 1.11328 h 2.7083 v 0.73568 h -2.7083 v 1.07421 h 2.819 v 0.70313 h -2.819 v 1.22396 h 3.3073 v 0.73567 h -5.3711 v 1.04818 h 5.4101 v 0.80078 h -5.4101 v 2.26563 z m -0.3711,-9.70052 v 1.11328 h 2.5065 v -1.11328 z m 0,1.84896 v 1.07421 h 2.5065 v -1.07421 z m 0,1.77734 v 1.22396 h 2.5065 v -1.22396 z m -2.6107,-3.73698 -1.6992,-1.3737 0.625,-0.625 q 1.237,0.8724 1.7318,1.28906 z m -1.0286,2.3112 q -0.4818,-0.44271 -1.7318,-1.33464 l 0.5859,-0.66406 q 0.7227,0.46875 1.7709,1.27604 z m -0.612,3.68489 -0.599,-0.67708 q 1.2631,-1.14583 2.3112,-2.72135 l 0.7032,0.47526 q -0.3972,0.63151 -1.1263,1.51041 -0.7227,0.8724 -1.2891,1.41276 z" />
      <path
         id="path1063"
         style="font-style:normal;font-variant:normal;font-weight:normal;font-stretch:normal;font-size:13.33333397px;font-family:'Meiryo UI';-inkscape-font-specification:'Meiryo UI'"
         d="m 1037.6117,123.32943 q -1.2956,1.73828 -3.2227,2.77995 l -0.4622,-0.67058 q 1.9856,-1.21093 3.1445,-2.98828 -1.1003,-2.00521 -1.4518,-3.73698 -0.2605,0.52084 -0.5078,0.90495 l -0.7487,-0.46224 q 0.5924,-0.96354 1.0937,-2.39583 0.5078,-1.43881 0.7031,-2.57813 l 1.0026,0.1237 q -0.1953,1.04167 -0.5924,2.14844 h 3.7891 v 0.76172 h -0.7097 q -0.1497,2.92968 -1.4713,5.24088 1.0546,1.64714 2.4153,2.76693 l -0.6705,0.73568 q -1.3868,-1.28256 -2.3112,-2.63021 z m -0.01,-1.8099 q 1.0547,-2.07682 1.0873,-4.29687 l -2.4219,0.0195 -0.059,0.14974 q 0.3125,2.16797 1.3932,4.1276 z m -9.375,-1.73828 -0.345,-0.61198 q 0.625,-0.26042 1.5299,-0.83984 0.9115,-0.57943 1.517,-1.14584 h -2.6107 v -0.67708 h 2.8581 v -2.13542 h 0.9505 v 2.13542 h 2.6953 v 0.67708 h -2.6367 q 0.8919,0.72266 2.0247,1.25651 l -0.4622,0.65105 q -0.6576,-0.33204 -1.6211,-1.07422 v 1.82291 h -0.9505 v -1.84244 q -1.4714,1.17838 -2.9493,1.78385 z m 5.7227,-3.5612 -0.7487,-0.1888 0.599,-1.45833 0.8203,0.17578 z m -4.5443,-0.026 -0.5273,-1.36068 0.7877,-0.23437 0.5469,1.36068 z m 2.513,8.78255 q -1.4908,0.91797 -3.5546,1.11979 l -0.1954,-0.68359 q 1.7058,-0.24739 2.8777,-0.86588 -1.4388,-0.6836 -2.0573,-0.84636 -0.1498,0 -0.1498,-0.23437 0,-0.0456 0.026,-0.0911 0.3255,-0.57943 0.7747,-1.54948 h -1.5234 v -0.73568 h 1.8489 q 0.2995,-0.6901 0.4102,-1.00911 l 0.9505,0.14974 q -0.1172,0.29297 -0.3776,0.85937 h 4.0365 v 0.73568 h -0.8073 q -0.3711,1.52995 -1.517,2.59115 0.7487,0.35807 1.1524,0.57291 l -0.5404,0.73568 q -0.4622,-0.29297 -1.3542,-0.7487 z m -0.085,-0.95052 q 1.0807,-0.91797 1.3737,-2.20052 h -2.5976 q -0.5144,1.07422 -0.6967,1.36068 0.5013,0.16927 1.9206,0.83984 z" />
      <path
         id="path1065"
         style="font-style:normal;font-variant:normal;font-weight:normal;font-stretch:normal;font-size:13.33333397px;font-family:'Meiryo UI';-inkscape-font-specification:'Meiryo UI'"
         d="m 1042.7158,117.79557 v -3.11198 h 9.6159 v 3.11198 z m 0.9701,-1.82291 h 7.6823 V 115.25 h -7.6823 z m 7.6823,0.53385 h -7.6823 v 0.71615 h 7.6823 z m -9.9675,2.67578 v -0.63802 h 12.2787 v 0.63802 z m 5.586,5.95703 v -0.77474 h -4.987 v -0.65104 h 4.987 v -0.77474 h -4.375 v -3.03385 h 9.8307 v 3.03385 h -4.4076 v 0.77474 h 5.0326 v 0.65104 h -5.0326 v 0.77474 h 5.7292 v 0.6836 h -12.4349 v -0.6836 z m -3.3985,-3.97135 h 3.3985 v -0.72266 h -3.3985 z m 4.4466,0 h 3.4115 v -0.72266 h -3.4115 z m 3.4115,0.48828 h -3.4115 v 0.7487 h 3.4115 z m -4.4596,0 h -3.3985 v 0.7487 h 3.3985 z" />
    </g>
    <g
       id="flowRoot1031"
       style="font-style:normal;font-weight:normal;font-size:21.33333397px;line-height:1.25;font-family:sans-serif;text-align:center;letter-spacing:0px;word-spacing:0px;text-anchor:middle;fill:#000000;fill-opacity:1;stroke:none"
       transform="matrix(0.26458333,0,0,0.26458333,0,47)"
       aria-label="標準単価">
      <path
         id="path1068"
         style="font-style:normal;font-variant:normal;font-weight:normal;font-stretch:normal;font-size:13.33333397px;font-family:'Meiryo UI';-inkscape-font-specification:'Meiryo UI'"
         d="m 920.986,120.13932 q -0.55338,1.51693 -1.60807,3.02735 l -0.61198,-0.44922 q 0.625,-0.87891 1.27604,-2.38932 0.65104,-1.51042 0.86589,-2.57162 h -1.56901 v -0.78776 h 1.67317 v -2.70833 h 0.96354 v 2.70833 h 0.92448 v 0.78776 h -0.92448 v 0.99609 q 0.4362,0.54688 1.3086,1.30209 l -0.48828,0.77474 q -0.26042,-0.27344 -0.82032,-0.89844 v 6.17839 h -0.96354 z m 4.64193,-3.6914 v -1.04167 h -2.59766 v -0.72266 h 8.36589 v 0.72266 h -2.72136 v 1.04167 h 2.32422 v 2.64323 h -7.61719 v -2.64323 z m 0.84635,-1.04167 v 1.04167 h 1.35417 v -1.04167 z m -0.84635,3.04688 v -1.3737 h -1.36068 v 1.3737 z m 0.84635,-1.3737 v 1.3737 h 1.35417 v -1.3737 z m 3.65235,0 h -1.45183 v 1.3737 h 1.45183 z m -6.38672,3.73698 v -0.73568 h 7.01823 v 0.73568 z m 2.94922,5.22135 h -1.32162 l -0.11719,-0.82682 h 1.00261 q 0.48828,0 0.48828,-0.4362 v -2.1875 h -3.88672 v -0.7487 h 8.78255 v 0.7487 h -3.89974 v 2.53906 q 0,0.42969 -0.29296,0.67058 -0.28646,0.24088 -0.75521,0.24088 z m 4.54427,-0.47526 q -0.63802,-0.35807 -1.49089,-1.02213 -0.85286,-0.66407 -1.17838,-1.0612 l 0.68359,-0.52735 q 1.04818,1.00261 2.59766,1.90105 z m -8.35287,0 -0.5013,-0.625 q 1.49089,-0.85937 2.42188,-1.94661 l 0.77474,0.47526 q -0.46224,0.54036 -1.3086,1.1914 -0.84635,0.65104 -1.38672,0.90495 z" />
      <path
         id="path1070"
         style="font-style:normal;font-variant:normal;font-weight:normal;font-stretch:normal;font-size:13.33333397px;font-family:'Meiryo UI';-inkscape-font-specification:'Meiryo UI'"
         d="m 938.12142,126.15495 v -2.26563 h -5.41667 v -0.80078 h 5.41667 v -1.04818 h -1.34766 v -4.74609 q -0.41015,0.53386 -0.76172,0.88542 l -0.52734,-0.47526 q 1.69922,-1.92709 2.3763,-3.64584 l 0.9961,0.23438 q -0.31901,0.64453 -0.78776,1.39974 h 2.30468 q 0.45573,-0.8724 0.70964,-1.47136 l 1.02213,0.23438 q -0.14323,0.28646 -0.78125,1.23698 h 2.92969 v 0.76172 h -3.02083 v 1.11328 h 2.70833 v 0.73568 h -2.70833 v 1.07421 h 2.81901 v 0.70313 h -2.81901 v 1.22396 h 3.30729 v 0.73567 h -5.37109 v 1.04818 h 5.41015 v 0.80078 h -5.41015 v 2.26563 z m -0.37109,-9.70052 v 1.11328 h 2.50651 v -1.11328 z m 0,1.84896 v 1.07421 h 2.50651 v -1.07421 z m 0,1.77734 v 1.22396 h 2.50651 v -1.22396 z m -2.61068,-3.73698 -1.69922,-1.3737 0.625,-0.625 q 1.23698,0.8724 1.73177,1.28906 z m -1.02865,2.3112 q -0.48177,-0.44271 -1.73177,-1.33464 l 0.58594,-0.66406 q 0.72265,0.46875 1.77083,1.27604 z m -0.61198,3.68489 -0.59896,-0.67708 q 1.26303,-1.14583 2.3112,-2.72135 l 0.70313,0.47526 q -0.39714,0.63151 -1.1263,1.51041 -0.72266,0.8724 -1.28907,1.41276 z" />
      <path
         id="path1072"
         style="font-style:normal;font-variant:normal;font-weight:normal;font-stretch:normal;font-size:13.33333397px;font-family:'Meiryo UI';-inkscape-font-specification:'Meiryo UI'"
         d="m 951.611,116.46745 q -0.26041,-0.72917 -0.92448,-2.05729 l 0.9961,-0.27344 q 0.41015,0.76823 0.9375,2.04427 z m -0.20182,9.65495 v -2.08334 h -5.50781 v -0.83984 h 5.50781 v -1.23698 h -4.55729 v -5.20833 h 8.03385 q 0.36459,-0.54688 1.41927,-2.50651 l 1.07422,0.35807 q -0.70312,1.14583 -1.4388,2.14844 h 1.15234 v 5.20833 h -4.64843 v 1.23698 h 5.73567 v 0.83984 h -5.73567 v 2.08334 z m 0,-7.11589 v -1.52344 H 947.861 v 1.52344 z m 1.03516,-1.52344 v 1.52344 h 3.64583 v -1.52344 z m -1.03516,3.74349 v -1.52343 H 947.861 v 1.52343 z m 1.03516,-1.52343 v 1.52343 h 3.64583 v -1.52343 z m -4.65495,-3.04688 q -0.35156,-0.77474 -1.07422,-1.94661 l 0.92448,-0.35157 q 0.84635,1.36719 1.13281,1.95964 z" />
      <path
         id="path1074"
         style="font-style:normal;font-variant:normal;font-weight:normal;font-stretch:normal;font-size:13.33333397px;font-family:'Meiryo UI';-inkscape-font-specification:'Meiryo UI'"
         d="m 960.73861,126.10938 -0.026,-6.82943 q -0.5013,1.24349 -1.33463,2.24609 l -0.61198,-0.50781 q 0.91146,-1.26302 1.81641,-3.49609 0.90494,-2.23959 1.08072,-3.33985 l 1.00912,0.16276 q -0.4362,1.79037 -1.29557,3.64584 h 0.36458 v 8.11849 z m 9.32942,-0.7487 h -6.02864 v 0.55338 h -0.97657 v -8.03385 h 2.32422 v -2.35026 h -2.35026 v -0.76172 h 8.64584 v 0.76172 h -3.04037 v 2.35026 h 2.40235 v 8.02083 h -0.97657 z m -3.72396,-7.48047 h 1.35417 v -2.35026 h -1.35417 z m -2.30468,6.70573 h 1.34765 v -5.95703 h -1.34765 z m 2.30468,0 h 1.35417 v -5.95703 h -1.35417 z m 2.29818,0 h 1.42578 v -5.95703 h -1.42578 z" />
    </g>
    <g
       id="flowRoot1003"
       style="font-style:normal;font-weight:normal;font-size:21.33333397px;line-height:14.9333334px;font-family:sans-serif;text-align:center;letter-spacing:0px;word-spacing:0px;text-anchor:middle;fill:#000000;fill-opacity:1;stroke:none"
       transform="matrix(0.26458333,0,0,0.26458333,0,47)"
       aria-label="諸掛
行番">
      <path
         id="path1077"
         style="font-style:normal;font-variant:normal;font-weight:normal;font-stretch:normal;font-size:13.33333397px;line-height:14.9333334px;font-family:'Meiryo UI';-inkscape-font-specification:'Meiryo UI';text-align:center;text-anchor:middle"
         d="m 877.23405,119.57865 h -3.67188 v 0.52734 h -0.98958 v -4.92188 q -0.23437,0.11719 -1.17187,0.55339 l -0.39714,-0.70312 q 2.05729,-0.80079 3.79557,-2.19402 h -3.3138 v -0.7552 h 2.44792 v -1.64714 h -1.94662 v -0.7487 h 1.94662 v -1.36067 h 1.02864 v 1.36067 h 1.7448 v 0.7487 h -1.7448 v 1.64714 h 0.78776 q 0.61198,-0.64454 1.26303,-1.60808 0.65104,-0.96354 0.97005,-1.67317 l 0.96354,0.35156 q -0.27995,0.54036 -0.93099,1.47135 -0.65104,0.93099 -1.13281,1.45834 h 2.14843 v 0.74218 l -2.92317,0.007 q -0.67709,0.63151 -1.51693,1.19141 h 3.66536 v 6.08073 h -1.02213 z m 0,-3.17058 v -1.63411 h -3.67188 v 1.63411 z m -3.67188,2.38933 h 3.67188 v -1.64063 h -3.67188 z m -6.25651,-9.19271 v -0.77474 h 3.50912 v 0.77474 z m -0.46224,1.78385 v -0.77474 h 4.3099 v 0.77474 z m 0.47526,1.77083 v -0.73567 h 3.43099 v 0.73567 z m 0,1.76433 v -0.73568 h 3.43099 v 0.73568 z m 0.7487,4.75911 v 0.4362 h -0.91146 v -4.08203 h 3.63282 v 3.64583 z m 1.75781,-2.92317 h -1.71875 v 2.1875 h 1.71875 z" />
      <path
         id="path1079"
         style="font-style:normal;font-variant:normal;font-weight:normal;font-stretch:normal;font-size:13.33333397px;line-height:14.9333334px;font-family:'Meiryo UI';-inkscape-font-specification:'Meiryo UI';text-align:center;text-anchor:middle"
         d="m 889.80566,120.22969 v -11.82292 h 1.00912 v 4.28385 q 1.28255,0.94402 2.0638,1.34766 l -0.4362,0.85938 q -0.85937,-0.52735 -1.6276,-1.13282 v 6.46485 z m -9.83073,-4.17969 -0.24739,-0.8138 q 0.59896,-0.16276 1.74479,-0.61198 v -2.88412 h -1.34766 v -0.77474 h 1.34766 v -2.5 h 0.95052 v 2.5 h 1.08724 v 0.77474 h -1.08724 v 2.49349 q 0.63802,-0.27343 1.00261,-0.46875 l 0.19531,0.6836 q -0.31901,0.21484 -1.19792,0.61198 v 4.22526 q 0,0.41015 -0.29948,0.63802 -0.29948,0.23437 -0.76172,0.23437 h -1.27604 l -0.11068,-0.83984 h 0.98959 q 0.50781,0 0.50781,-0.42318 v -3.42448 q -0.91797,0.38412 -1.4974,0.57943 z m 3.60027,-2.73438 v -0.80078 h 2.23307 v -1.80989 h -1.73828 v -0.76172 h 1.73828 v -1.4388 h 0.98958 v 1.4388 h 1.75781 v 0.76172 h -1.75781 v 1.80989 h 2.15495 v 0.80078 z m -0.26693,6.41928 -0.14974,-0.85287 q 0.67708,-0.0521 2.64974,-0.29297 v -2.36328 h -1.90104 V 115.425 h 1.90104 v -1.4388 h 0.98958 v 1.4388 h 1.86849 v 0.80078 h -1.86849 v 2.23958 q 1.7513,-0.23437 2.33073,-0.34505 l 0.0391,0.77474 q -1.24349,0.3125 -5.85937,0.83985 z" />
      <path
         id="path1081"
         style="font-style:normal;font-variant:normal;font-weight:normal;font-stretch:normal;font-size:13.33333397px;line-height:14.9333334px;font-family:'Meiryo UI';-inkscape-font-specification:'Meiryo UI';text-align:center;text-anchor:middle"
         d="m 867.23405,127.50156 -0.55339,-0.65104 q 1.5625,-1.10026 2.76042,-2.95573 l 0.96354,0.35807 q -0.63151,0.93099 -1.54297,1.86198 -0.90494,0.93099 -1.6276,1.38672 z m 4.65495,-2.23307 v -0.82683 h 6.6862 v 0.82683 z m -3.22266,10.41015 v -5.36458 q -0.8724,1.00912 -1.67318,1.66016 l -0.63151,-0.58594 q 1.02865,-0.8724 2.03125,-2.21354 1.00912,-1.34115 1.53646,-2.42188 l 0.97656,0.27344 q -0.58593,1.13281 -1.58203,2.46094 h 0.3711 v 6.1914 z m 6.93359,-0.18229 h -2.02473 l -0.11068,-0.95052 h 1.62109 q 0.54037,0 0.54037,-0.44922 v -5.08463 h -4.4336 v -0.8138 h 7.94271 v 0.8138 h -2.42187 v 5.52083 q 0,0.4362 -0.33855,0.69662 -0.33203,0.26692 -0.77474,0.26692 z" />
      <path
         id="path1083"
         style="font-style:normal;font-variant:normal;font-weight:normal;font-stretch:normal;font-size:13.33333397px;line-height:14.9333334px;font-family:'Meiryo UI';-inkscape-font-specification:'Meiryo UI';text-align:center;text-anchor:middle"
         d="m 880.2028,130.9 -0.39063,-0.67708 q 2.42188,-0.78125 4.5573,-2.49349 h -4.19271 v -0.74219 h 2.74088 q -0.41666,-0.82683 -0.67057,-1.24349 l 0.85287,-0.22787 q 0.26692,0.41667 0.80078,1.47136 h 1.79687 v -1.77735 q -2.09635,0.0716 -4.43359,0.0716 l -0.1237,-0.74219 h 1.08073 q 2.3763,0 3.75,-0.0716 1.38021,-0.0781 2.71484,-0.18881 1.33464,-0.11718 1.97917,-0.24739 l 0.44922,0.7487 q -1.65365,0.24088 -3.6849,0.35156 l -0.70963,0.0391 v 1.81641 h 1.90104 q 0.45573,-0.70313 0.95703,-1.6211 l 0.95052,0.27344 q -0.39062,0.625 -0.91146,1.34766 h 2.67578 v 0.74219 h -4.3164 q 0.88541,0.70312 2.42187,1.39974 1.53646,0.69661 2.3763,0.91796 l -0.50781,0.76172 q -1.54297,-0.51432 -3.07291,-1.36718 -1.52344,-0.85287 -2.35678,-1.71224 h -0.11718 v 2.15494 h -1.02214 v -2.15494 h -0.11719 q -0.78776,0.85286 -2.27213,1.72526 -1.48438,0.86588 -3.10547,1.44531 z m 9.73958,4.24479 h -7.40885 v 0.44922 h -0.98307 v -5.15625 h 9.40104 v 5.15625 h -1.00912 z m 0,-2.7474 v -1.26302 h -3.20963 v 1.26302 z m -4.23177,-1.26302 h -3.17708 v 1.26302 h 3.17708 z m -3.17708,3.31381 h 3.17708 v -1.35417 h -3.17708 z m 4.19922,0 h 3.20963 v -1.35417 h -3.20963 z" />
    </g>
    <g
       id="flowRoot989"
       style="font-style:normal;font-weight:normal;font-size:21.33333397px;line-height:14.9333334px;font-family:sans-serif;text-align:center;letter-spacing:0px;word-spacing:0px;text-anchor:middle;fill:#000000;fill-opacity:1;stroke:none"
       transform="matrix(0.26458333,0,0,0.26458333,-0.26189714,46.88464)"
       aria-label="標準
インターバル">
      <path
         id="path1086"
         style="font-style:normal;font-variant:normal;font-weight:normal;font-stretch:normal;font-size:13.33333397px;line-height:14.9333334px;font-family:'Meiryo UI';-inkscape-font-specification:'Meiryo UI';text-align:center;text-anchor:middle"
         d="m 803.28711,114.27266 q -0.55339,1.51692 -1.60807,3.02734 l -0.61198,-0.44922 q 0.625,-0.8789 1.27604,-2.38932 0.65104,-1.51042 0.86588,-2.57162 h -1.56901 v -0.78776 h 1.67318 v -2.70833 h 0.96354 v 2.70833 h 0.92448 v 0.78776 h -0.92448 v 0.9961 q 0.4362,0.54687 1.3086,1.30208 l -0.48829,0.77474 q -0.26041,-0.27344 -0.82031,-0.89844 v 6.17839 h -0.96354 z m 4.64193,-3.69141 v -1.04167 h -2.59766 v -0.72265 h 8.36589 v 0.72265 h -2.72136 v 1.04167 h 2.32422 v 2.64323 h -7.61719 v -2.64323 z m 0.84635,-1.04167 v 1.04167 h 1.35417 v -1.04167 z m -0.84635,3.04688 v -1.3737 h -1.36068 v 1.3737 z m 0.84635,-1.3737 v 1.3737 h 1.35417 v -1.3737 z m 3.65234,0 h -1.45182 v 1.3737 h 1.45182 z m -6.38671,3.73698 v -0.73568 h 7.01822 v 0.73568 z m 2.94921,5.22135 h -1.32161 l -0.11719,-0.82682 h 1.00261 q 0.48828,0 0.48828,-0.4362 v -2.1875 h -3.88672 v -0.74869 h 8.78255 v 0.74869 h -3.89974 v 2.53907 q 0,0.42968 -0.29297,0.67057 -0.28646,0.24088 -0.75521,0.24088 z m 4.54428,-0.47526 q -0.63803,-0.35807 -1.49089,-1.02213 -0.85286,-0.66406 -1.17839,-1.0612 l 0.6836,-0.52734 q 1.04818,1.0026 2.59765,1.90104 z m -8.35287,0 -0.5013,-0.625 q 1.49088,-0.85937 2.42187,-1.94661 l 0.77474,0.47526 q -0.46224,0.54036 -1.30859,1.19141 -0.84636,0.65104 -1.38672,0.90494 z" />
      <path
         id="path1088"
         style="font-style:normal;font-variant:normal;font-weight:normal;font-stretch:normal;font-size:13.33333397px;line-height:14.9333334px;font-family:'Meiryo UI';-inkscape-font-specification:'Meiryo UI';text-align:center;text-anchor:middle"
         d="m 820.42253,120.28828 v -2.26562 h -5.41667 v -0.80078 h 5.41667 v -1.04818 h -1.34766 v -4.7461 q -0.41016,0.53386 -0.76172,0.88542 l -0.52734,-0.47526 q 1.69922,-1.92708 2.3763,-3.64583 l 0.99609,0.23437 q -0.31901,0.64453 -0.78776,1.39974 h 2.30469 q 0.45573,-0.87239 0.70964,-1.47135 l 1.02213,0.23437 q -0.14323,0.28646 -0.78125,1.23698 h 2.92969 v 0.76172 h -3.02083 v 1.11328 h 2.70833 v 0.73568 h -2.70833 v 1.07422 h 2.81901 v 0.70312 h -2.81901 v 1.22396 h 3.30729 v 0.73568 h -5.3711 v 1.04818 h 5.41016 v 0.80078 h -5.41016 v 2.26562 z m -0.3711,-9.70052 v 1.11328 h 2.50651 v -1.11328 z m 0,1.84896 v 1.07422 h 2.50651 v -1.07422 z m 0,1.77734 v 1.22396 h 2.50651 v -1.22396 z m -2.61067,-3.73698 -1.69922,-1.37369 0.625,-0.625 q 1.23698,0.87239 1.73177,1.28906 z m -1.02865,2.3112 q -0.48177,-0.44271 -1.73177,-1.33463 l 0.58594,-0.66407 q 0.72265,0.46875 1.77083,1.27604 z m -0.61198,3.6849 -0.59896,-0.67709 q 1.26302,-1.14583 2.3112,-2.72135 l 0.70312,0.47526 q -0.39713,0.63151 -1.1263,1.51042 -0.72265,0.87239 -1.28906,1.41276 z" />
      <path
         id="path1090"
         style="font-style:normal;font-variant:normal;font-weight:normal;font-stretch:normal;font-size:13.33333397px;line-height:14.9333334px;font-family:'Meiryo UI';-inkscape-font-specification:'Meiryo UI';text-align:center;text-anchor:middle"
         d="m 789.55664,135.4638 h -1.15885 v -6.28906 q -1.69271,1.21094 -4.20573,2.07682 l -0.34506,-0.89193 q 3.02735,-1.08724 4.77214,-2.72786 1.7513,-1.64063 2.63021,-3.39193 l 1.06771,0.41667 q -1.06771,1.95312 -2.76042,3.55469 z" />
      <path
         id="path1092"
         style="font-style:normal;font-variant:normal;font-weight:normal;font-stretch:normal;font-size:13.33333397px;line-height:14.9333334px;font-family:'Meiryo UI';-inkscape-font-specification:'Meiryo UI';text-align:center;text-anchor:middle"
         d="m 798.44987,127.29323 -0.73568,0.85286 q -1.92057,-1.43229 -3.83463,-2.41536 l 0.55989,-0.8138 q 2.03125,0.91145 4.01042,2.3763 z m 4.17969,1.65364 q -0.8724,1.9336 -2.25261,3.3073 -1.38021,1.36718 -2.86458,2.05729 -1.48438,0.68359 -3.48958,0.95703 l -0.22787,-1.00261 q 1.63412,-0.21484 2.92969,-0.78125 1.29557,-0.57291 2.20703,-1.34765 0.91797,-0.78125 1.53646,-1.57552 0.61849,-0.80078 1.25,-2.17448 z" />
      <path
         id="path1094"
         style="font-style:normal;font-variant:normal;font-weight:normal;font-stretch:normal;font-size:13.33333397px;line-height:14.9333334px;font-family:'Meiryo UI';-inkscape-font-specification:'Meiryo UI';text-align:center;text-anchor:middle"
         d="m 807.7207,124.30495 q -0.16927,0.67057 -0.37109,1.26953 h 4.39453 q -0.0326,0.65755 -0.14323,1.62109 -0.10417,0.96354 -0.39713,2.02474 -0.29297,1.05469 -0.78125,2.03776 -0.48829,0.98307 -1.22396,1.82292 -0.73568,0.83984 -1.66667,1.4388 -0.92448,0.59245 -2.0638,0.94401 l -0.3125,-0.89193 q 2.51302,-0.90494 3.82812,-3.0013 0.0716,-0.1237 0.14323,-0.24088 -1.34114,-0.95704 -2.94922,-1.71875 l 0.50782,-0.77474 q 1.28255,0.55989 2.91015,1.5625 0.76172,-1.72526 0.9375,-3.95834 h -3.5026 q -0.0716,0.16276 -0.13672,0.31901 -0.48177,1.08724 -1.34115,2.25261 -0.85286,1.16536 -1.70573,1.82942 l -0.53385,-0.70963 q 1.23047,-1.11979 2.10938,-2.77344 0.8789,-1.66015 1.22395,-3.19661 z" />
      <path
         id="path1096"
         style="font-style:normal;font-variant:normal;font-weight:normal;font-stretch:normal;font-size:13.33333397px;line-height:14.9333334px;font-family:'Meiryo UI';-inkscape-font-specification:'Meiryo UI';text-align:center;text-anchor:middle"
         d="m 821.97852,130.5289 h -8.69792 v -0.96354 h 8.69792 z" />
      <path
         id="path1098"
         style="font-style:normal;font-variant:normal;font-weight:normal;font-stretch:normal;font-size:13.33333397px;line-height:14.9333334px;font-family:'Meiryo UI';-inkscape-font-specification:'Meiryo UI';text-align:center;text-anchor:middle"
         d="m 833.28711,134.25286 -0.85287,0.73568 q -0.85937,-1.07422 -1.5625,-2.79297 -0.70312,-1.71875 -0.97656,-3.88021 -0.26693,-2.16146 -0.26693,-3.61979 h 1.08073 v 0.10417 q 0,2.83203 0.57292,5.24739 0.57292,2.40886 2.00521,4.20573 z m -5.95052,-9.47916 q -0.0846,3.83463 -0.94401,6.23698 -0.85287,2.39583 -2.48047,4.09505 l -0.74219,-0.70313 q 0.59896,-0.67057 1.04818,-1.3737 0.44922,-0.70312 0.79427,-1.5039 0.34505,-0.80729 0.60547,-1.67318 0.26692,-0.86588 0.41666,-2.1289 0.15625,-1.26954 0.19532,-2.94922 z m 6.94661,0.68359 -0.7487,0.30599 q -0.43619,-1.00912 -0.93099,-1.80339 l 0.69011,-0.33203 q 0.44922,0.69662 0.98958,1.82943 z m -1.60807,0.26693 -0.7487,0.33203 q -0.46875,-1.04818 -0.94401,-1.82292 l 0.70313,-0.32552 q 0.5664,0.87891 0.98958,1.81641 z" />
      <path
         id="path1100"
         style="font-style:normal;font-variant:normal;font-weight:normal;font-stretch:normal;font-size:13.33333397px;line-height:14.9333334px;font-family:'Meiryo UI';-inkscape-font-specification:'Meiryo UI';text-align:center;text-anchor:middle"
         d="m 845.06445,130.33359 q -0.80729,1.75781 -2.17447,3.09245 -1.36068,1.32813 -2.48698,1.79037 l -0.54037,-0.44271 v -10.13672 h 1.09375 v 9.0625 q 0.48828,-0.23438 1.53646,-1.34766 1.04818,-1.11979 1.67969,-2.48698 z m -7.15494,-2.31771 q 0,1.53646 -0.11719,2.61068 -0.11068,1.06771 -0.46224,1.97266 -0.34505,0.89843 -0.90495,1.57552 -0.55989,0.67057 -1.24349,1.14583 l -0.59896,-0.82682 q 0.61849,-0.44922 1.1849,-1.21094 0.57292,-0.76823 0.82682,-1.91406 0.26042,-1.15235 0.22136,-3.56771 v -2.7474 h 1.09375 z" />
    </g>
    <g
       id="flowRoot981"
       style="font-style:normal;font-weight:normal;font-size:21.33333397px;line-height:1.25;font-family:sans-serif;letter-spacing:0px;word-spacing:0px;fill:#000000;fill-opacity:1;stroke:none"
       transform="matrix(0.26458333,0,0,0.26458333,0,47)"
       aria-label="作業区分摘要">
      <path
         id="path1103"
         style="font-style:normal;font-variant:normal;font-weight:normal;font-stretch:normal;font-size:13.33333397px;font-family:'Meiryo UI';-inkscape-font-specification:'Meiryo UI';text-align:center;text-anchor:middle"
         d="m 674.53906,126.02474 v -8.76953 h -0.98307 q -0.89193,2.01172 -2.08985,3.46354 l -0.72265,-0.51432 q 1.09375,-1.39974 1.79036,-3.0599 0.69662,-1.66015 0.97005,-2.92318 l 1.04818,0.17579 q -0.27344,1.04817 -0.67708,2.08333 h 5.99609 v 0.77474 h -4.30989 v 2.01172 h 3.91276 v 0.78776 h -3.91276 v 1.95963 h 3.98437 v 0.80078 h -3.98437 v 3.20964 z m -5.35807,0.11068 v -6.64063 q -0.65755,1.10026 -1.4388,2.04427 l -0.67058,-0.53385 q 1.03516,-1.32162 2.03125,-3.3138 1.00261,-1.9987 1.28907,-3.44401 l 1.04817,0.1888 q -0.35156,1.40625 -1.5039,3.67187 h 0.22135 v 8.02735 z" />
      <path
         id="path1105"
         style="font-style:normal;font-variant:normal;font-weight:normal;font-stretch:normal;font-size:13.33333397px;font-family:'Meiryo UI';-inkscape-font-specification:'Meiryo UI';text-align:center;text-anchor:middle"
         d="m 680.85417,125.82292 -0.26042,-0.70964 q 3.18359,-0.69661 5.01302,-2.05078 h -4.77865 v -0.78125 h 5.54688 v -1.05469 h -4.54427 v -0.72265 h 4.54427 v -1.1198 h -4.89583 v -0.77473 h 2.76041 l -0.66406,-1.38672 h -2.57161 v -0.77474 h 1.94661 l -0.78776,-1.66016 0.89844,-0.24088 0.85937,1.90104 h 1.16537 v -2.1224 h 0.95052 v 2.1224 h 1.66015 v -2.1224 h 0.96355 v 2.1224 h 1.23697 l 0.8724,-1.92709 0.92448,0.24089 -0.87891,1.6862 h 2.12891 v 0.77474 h -2.70833 l -0.74219,1.38672 h 2.97526 v 0.77473 h -5.08464 v 1.1198 h 4.73308 v 0.72265 h -4.73308 v 1.05469 h 5.64454 v 0.78125 h -4.84376 q 0.91146,0.57943 2.37631,1.13281 1.47135,0.55339 2.74088,0.78125 l -0.42317,0.84636 q -3.28125,-0.72266 -5.52084,-2.39584 v 2.72136 h -0.95703 v -2.59115 q -0.93099,0.72266 -2.50651,1.3737 -1.57552,0.64453 -3.04036,0.89193 z m 3.75651,-8.60026 0.65755,1.38672 h 3.23568 l 0.66406,-1.38672 z" />
      <path
         id="path1107"
         style="font-style:normal;font-variant:normal;font-weight:normal;font-stretch:normal;font-size:13.33333397px;font-family:'Meiryo UI';-inkscape-font-specification:'Meiryo UI';text-align:center;text-anchor:middle"
         d="m 695.89323,124.57943 h 10.40364 v 0.78776 h -10.40364 v 0.52083 h -0.97656 v -11.10026 h 11.15234 v 0.78776 h -10.17578 z m 5.69661,-3.95183 Q 699.2526,122.88672 697,123.88932 l -0.39714,-0.72265 q 2.27214,-1.13282 4.28386,-3.09896 -2.0638,-1.62761 -3.03386,-2.20703 l 0.58594,-0.65104 q 1.32813,0.83984 3.10547,2.17447 1.35417,-1.48437 2.31771,-3.23567 l 0.95703,0.39713 q -0.8138,1.56901 -2.54557,3.39193 1.61458,1.24349 2.72135,2.20703 l -0.76172,0.6836 q -0.60547,-0.59896 -2.64323,-2.20053 z" />
      <path
         id="path1109"
         style="font-style:normal;font-variant:normal;font-weight:normal;font-stretch:normal;font-size:13.33333397px;font-family:'Meiryo UI';-inkscape-font-specification:'Meiryo UI';text-align:center;text-anchor:middle"
         d="m 708.1914,126.08984 -0.39713,-0.67708 q 2.07031,-0.67057 3.11849,-2.08333 1.05469,-1.41276 1.11979,-3.76302 h -2.5651 v -0.78776 h 8.28776 q -2.08334,-1.9336 -3.07943,-4.17969 l 0.96354,-0.28646 q 1.40625,2.90365 4.28386,4.91536 l -0.76172,0.74219 q -0.73568,-0.57942 -1.36068,-1.15234 v 3.02083 q 0,1.23698 -0.17578,2.0638 -0.17578,0.82683 -0.44922,1.20443 -0.27344,0.3711 -0.65755,0.56641 -0.38412,0.19531 -0.80078,0.24088 -0.41667,0.0456 -1.63412,0.0456 h -0.52083 l -0.16276,-0.91146 h 1.71224 q 0.74219,0 1.1914,-0.59245 0.45573,-0.59245 0.45573,-2.60417 v -2.28515 h -3.67187 q -0.13021,2.85807 -1.45183,4.40104 -1.3151,1.54297 -3.44401,2.12239 z m -0.39713,-6.19791 -0.5599,-0.63802 q 1.23698,-0.82683 2.46094,-2.22006 1.23047,-1.39974 1.71875,-2.59765 l 1.02865,0.26041 q -1.5625,3.11849 -4.64844,5.19532 z" />
      <path
         id="path1111"
         style="font-style:normal;font-variant:normal;font-weight:normal;font-stretch:normal;font-size:13.33333397px;font-family:'Meiryo UI';-inkscape-font-specification:'Meiryo UI';text-align:center;text-anchor:middle"
         d="m 728.11979,124.36458 v 0.19532 h -0.84635 v -3.17058 h 1.32161 v -1.15885 h -1.7513 v -0.67708 h 1.7513 v -1.11329 h -2.39583 v 7.65625 h -0.97656 v -8.35286 h 1.84245 l -0.65756,-1.79688 h -1.45833 v -0.76171 h 3.54818 v -1.02865 h 1.00911 v 1.02865 h 3.65886 v 0.76171 h -1.35417 l -0.78125,1.79688 h 1.875 v 7.27865 q 0,0.39062 -0.34505,0.66406 -0.33854,0.27344 -0.80729,0.27344 h -1.4323 l -0.10416,-0.8724 h 1.15234 q 0.54688,0 0.54688,-0.47526 v -6.17188 h -2.4349 v 1.11329 h 1.82292 v 0.67708 h -1.82292 v 1.15885 h 1.36068 v 2.97526 z m -0.11067,-6.62109 h 2.07682 l 0.71614,-1.79688 h -3.42447 z m 1.97265,4.27083 h -1.84896 v 1.66016 h 1.84896 z m -9.27734,-0.33854 -0.20183,-0.88542 q 0.66407,-0.14973 1.875,-0.47526 v -2.85807 h -1.64062 v -0.78776 h 1.64062 v -2.47396 h 1.02214 v 2.47396 h 1.23698 v 0.78776 h -1.23698 v 2.57162 q 0.83333,-0.24089 1.15885,-0.36459 l 0.11719,0.76172 q -0.36458,0.16927 -1.27604,0.46875 v 4.31641 q 0,0.39713 -0.31901,0.63151 -0.31901,0.24088 -0.72917,0.24088 h -1.46484 l -0.1237,-0.89843 h 1.13932 q 0.47526,0 0.47526,-0.42318 v -3.54818 q -1.0677,0.31901 -1.67317,0.46224 z" />
      <path
         id="path1113"
         style="font-style:normal;font-variant:normal;font-weight:normal;font-stretch:normal;font-size:13.33333397px;font-family:'Meiryo UI';-inkscape-font-specification:'Meiryo UI';text-align:center;text-anchor:middle"
         d="m 738.1849,116.86458 v -1.22395 h -3.94531 v -0.76172 h 12.01172 v 0.76172 h -4.03646 v 1.22395 h 3.28776 v 3.07292 h -6.03516 q -0.15625,0.33854 -0.65104,1.23698 h 7.59766 v 0.80729 h -2.25912 q -0.65104,1.32162 -1.90104,2.23958 2.05078,0.56641 3.41146,1.07422 l -0.59896,0.77474 q -1.58203,-0.625 -3.71745,-1.28255 -1.01562,0.51432 -2.97526,0.88542 -1.95963,0.37109 -3.47656,0.45573 l -0.19531,-0.77474 q 1.79036,-0.0716 3.30729,-0.3711 1.52344,-0.30599 2.16797,-0.54687 -0.29297,-0.0911 -0.49479,-0.13021 l -2.35678,-0.4362 q -0.6901,-0.13021 -0.74218,-0.14974 -0.0456,-0.026 -0.0781,-0.0911 -0.0326,-0.0651 -0.0326,-0.15625 0,-0.0521 0.026,-0.0911 0.37761,-0.55338 0.85287,-1.39974 h -3.20313 v -0.80729 h 3.63932 q 0.34506,-0.66406 0.60547,-1.23698 h -3.35937 v -3.07292 z m 0.98307,-1.22395 v 1.22395 h 2.07683 v -1.22395 z m -0.98307,3.59375 v -1.66016 h -2.17448 v 1.66016 z m 0.98307,-1.66016 v 1.66016 h 2.07683 v -1.66016 z m 5.34505,0 h -2.29817 v 1.66016 h 2.29817 z m -3.32031,6.33463 q 1.04818,-0.63802 1.80339,-1.92708 h -4.62891 q -0.42318,0.74219 -0.68359,1.15235 0.91146,0.1888 3.50911,0.77473 z" />
    </g>
    <g
       id="flowRoot963"
       style="font-style:normal;font-weight:normal;font-size:21.33333397px;line-height:1.25;font-family:sans-serif;text-align:center;letter-spacing:0px;word-spacing:0px;text-anchor:middle;fill:#000000;fill-opacity:1;stroke:none"
       transform="matrix(0.26458333,0,0,0.26458333,0,47)"
       aria-label="作業区分">
      <path
         id="path1116"
         style="font-style:normal;font-variant:normal;font-weight:normal;font-stretch:normal;font-size:13.33333397px;font-family:'Meiryo UI';-inkscape-font-specification:'Meiryo UI';text-align:center;text-anchor:middle"
         d="m 581.00618,126.02474 v -8.76953 h -0.98307 q -0.89193,2.01172 -2.08984,3.46354 l -0.72266,-0.51432 q 1.09375,-1.39974 1.79037,-3.0599 0.69661,-1.66015 0.97005,-2.92318 l 1.04817,0.17579 q -0.27343,1.04817 -0.67708,2.08333 h 5.9961 v 0.77474 h -4.3099 v 2.01172 h 3.91276 v 0.78776 h -3.91276 v 1.95963 h 3.98437 v 0.80078 h -3.98437 v 3.20964 z m -5.35807,0.11068 v -6.64063 q -0.65755,1.10026 -1.4388,2.04427 l -0.67057,-0.53385 q 1.03515,-1.32162 2.03125,-3.3138 1.0026,-1.9987 1.28906,-3.44401 l 1.04818,0.1888 q -0.35157,1.40625 -1.50391,3.67187 h 0.22135 v 8.02735 z" />
      <path
         id="path1118"
         style="font-style:normal;font-variant:normal;font-weight:normal;font-stretch:normal;font-size:13.33333397px;font-family:'Meiryo UI';-inkscape-font-specification:'Meiryo UI';text-align:center;text-anchor:middle"
         d="m 587.32129,125.82292 -0.26042,-0.70964 q 3.1836,-0.69661 5.01302,-2.05078 h -4.77864 v -0.78125 h 5.54687 v -1.05469 h -4.54427 v -0.72265 h 4.54427 v -1.1198 h -4.89583 v -0.77473 h 2.76042 l -0.66407,-1.38672 h -2.57161 v -0.77474 h 1.94661 l -0.78776,-1.66016 0.89844,-0.24088 0.85937,1.90104 h 1.16537 v -2.1224 h 0.95052 v 2.1224 h 1.66016 v -2.1224 h 0.96354 v 2.1224 h 1.23698 l 0.87239,-1.92709 0.92448,0.24089 -0.8789,1.6862 h 2.1289 v 0.77474 h -2.70833 l -0.74219,1.38672 h 2.97526 v 0.77473 h -5.08463 v 1.1198 h 4.73307 v 0.72265 h -4.73307 v 1.05469 h 5.64453 v 0.78125 h -4.84375 q 0.91146,0.57943 2.3763,1.13281 1.47135,0.55339 2.74089,0.78125 l -0.42318,0.84636 q -3.28125,-0.72266 -5.52083,-2.39584 v 2.72136 h -0.95704 v -2.59115 q -0.93099,0.72266 -2.50651,1.3737 -1.57552,0.64453 -3.04036,0.89193 z m 3.75651,-8.60026 0.65755,1.38672 h 3.23568 l 0.66406,-1.38672 z" />
      <path
         id="path1120"
         style="font-style:normal;font-variant:normal;font-weight:normal;font-stretch:normal;font-size:13.33333397px;font-family:'Meiryo UI';-inkscape-font-specification:'Meiryo UI';text-align:center;text-anchor:middle"
         d="M 602.36035,124.57943 H 612.764 v 0.78776 h -10.40365 v 0.52083 h -0.97656 v -11.10026 h 11.15234 v 0.78776 h -10.17578 z m 5.69662,-3.95183 q -2.33724,2.25912 -4.58985,3.26172 l -0.39713,-0.72265 q 2.27213,-1.13282 4.28385,-3.09896 -2.0638,-1.62761 -3.03385,-2.20703 l 0.58593,-0.65104 q 1.32813,0.83984 3.10547,2.17447 1.35417,-1.48437 2.31771,-3.23567 l 0.95703,0.39713 q -0.8138,1.56901 -2.54557,3.39193 1.61458,1.24349 2.72135,2.20703 l -0.76171,0.6836 q -0.60547,-0.59896 -2.64323,-2.20053 z" />
      <path
         id="path1122"
         style="font-style:normal;font-variant:normal;font-weight:normal;font-stretch:normal;font-size:13.33333397px;font-family:'Meiryo UI';-inkscape-font-specification:'Meiryo UI';text-align:center;text-anchor:middle"
         d="m 614.65853,126.08984 -0.39714,-0.67708 q 2.07031,-0.67057 3.11849,-2.08333 1.05469,-1.41276 1.11979,-3.76302 h -2.5651 v -0.78776 h 8.28776 q -2.08333,-1.9336 -3.07943,-4.17969 l 0.96354,-0.28646 q 1.40625,2.90365 4.28386,4.91536 l -0.76172,0.74219 q -0.73568,-0.57942 -1.36068,-1.15234 v 3.02083 q 0,1.23698 -0.17578,2.0638 -0.17578,0.82683 -0.44922,1.20443 -0.27343,0.3711 -0.65755,0.56641 -0.38411,0.19531 -0.80078,0.24088 -0.41667,0.0456 -1.63412,0.0456 h -0.52083 l -0.16276,-0.91146 h 1.71224 q 0.74219,0 1.19141,-0.59245 0.45573,-0.59245 0.45573,-2.60417 v -2.28515 h -3.67188 q -0.13021,2.85807 -1.45182,4.40104 -1.31511,1.54297 -3.44401,2.12239 z m -0.39714,-6.19791 -0.55989,-0.63802 q 1.23698,-0.82683 2.46093,-2.22006 1.23047,-1.39974 1.71875,-2.59765 l 1.02865,0.26041 q -1.5625,3.11849 -4.64844,5.19532 z" />
    </g>
    <g
       id="flowRoot955"
       style="font-style:normal;font-weight:normal;font-size:21.33333397px;line-height:1.25;font-family:sans-serif;letter-spacing:0px;word-spacing:0px;fill:#000000;fill-opacity:1;stroke:none"
       transform="matrix(0.26458333,0,0,0.26458333,0,47)"
       aria-label="標準業者名称">
      <path
         id="path1125"
         style="font-style:normal;font-variant:normal;font-weight:normal;font-stretch:normal;font-size:13.33333397px;font-family:'Meiryo UI';-inkscape-font-specification:'Meiryo UI';text-align:center;text-anchor:middle"
         d="m 455.52669,120.13932 q -0.55338,1.51693 -1.60807,3.02735 l -0.61198,-0.44922 q 0.625,-0.87891 1.27604,-2.38932 0.65104,-1.51042 0.86589,-2.57162 h -1.56901 v -0.78776 h 1.67317 v -2.70833 h 0.96354 v 2.70833 h 0.92448 v 0.78776 h -0.92448 v 0.99609 q 0.4362,0.54688 1.3086,1.30209 l -0.48828,0.77474 q -0.26042,-0.27344 -0.82032,-0.89844 v 6.17839 h -0.96354 z m 4.64193,-3.6914 v -1.04167 h -2.59766 v -0.72266 h 8.36589 v 0.72266 h -2.72136 v 1.04167 h 2.32422 v 2.64323 h -7.61719 v -2.64323 z m 0.84635,-1.04167 v 1.04167 h 1.35417 v -1.04167 z m -0.84635,3.04688 v -1.3737 h -1.36068 v 1.3737 z m 0.84635,-1.3737 v 1.3737 h 1.35417 v -1.3737 z m 3.65235,0 h -1.45183 v 1.3737 h 1.45183 z m -6.38672,3.73698 v -0.73568 h 7.01823 v 0.73568 z m 2.94922,5.22135 h -1.32162 l -0.11719,-0.82682 h 1.00261 q 0.48828,0 0.48828,-0.4362 v -2.1875 h -3.88672 v -0.7487 h 8.78255 v 0.7487 h -3.89974 v 2.53906 q 0,0.42969 -0.29297,0.67058 -0.28645,0.24088 -0.7552,0.24088 z m 4.54427,-0.47526 q -0.63802,-0.35807 -1.49089,-1.02213 -0.85286,-0.66407 -1.17838,-1.0612 l 0.68359,-0.52735 q 1.04818,1.00261 2.59766,1.90105 z m -8.35287,0 -0.5013,-0.625 q 1.49089,-0.85937 2.42188,-1.94661 l 0.77473,0.47526 q -0.46223,0.54036 -1.30859,1.1914 -0.84635,0.65104 -1.38672,0.90495 z" />
      <path
         id="path1127"
         style="font-style:normal;font-variant:normal;font-weight:normal;font-stretch:normal;font-size:13.33333397px;font-family:'Meiryo UI';-inkscape-font-specification:'Meiryo UI';text-align:center;text-anchor:middle"
         d="m 472.66211,126.15495 v -2.26563 h -5.41667 v -0.80078 h 5.41667 v -1.04818 h -1.34766 v -4.74609 q -0.41015,0.53386 -0.76172,0.88542 l -0.52734,-0.47526 q 1.69922,-1.92709 2.3763,-3.64584 l 0.9961,0.23438 q -0.31901,0.64453 -0.78776,1.39974 h 2.30468 q 0.45573,-0.8724 0.70964,-1.47136 l 1.02213,0.23438 q -0.14323,0.28646 -0.78125,1.23698 h 2.92969 v 0.76172 h -3.02083 v 1.11328 h 2.70833 v 0.73568 h -2.70833 v 1.07421 h 2.81901 v 0.70313 h -2.81901 v 1.22396 h 3.30729 v 0.73567 h -5.37109 v 1.04818 h 5.41015 v 0.80078 h -5.41015 v 2.26563 z m -0.3711,-9.70052 v 1.11328 h 2.50652 v -1.11328 z m 0,1.84896 v 1.07421 h 2.50652 v -1.07421 z m 0,1.77734 v 1.22396 h 2.50652 v -1.22396 z m -2.61067,-3.73698 -1.69922,-1.3737 0.625,-0.625 q 1.23698,0.8724 1.73177,1.28906 z m -1.02865,2.3112 q -0.48177,-0.44271 -1.73177,-1.33464 l 0.58594,-0.66406 q 0.72265,0.46875 1.77083,1.27604 z m -0.61198,3.68489 -0.59896,-0.67708 q 1.26302,-1.14583 2.3112,-2.72135 l 0.70313,0.47526 q -0.39714,0.63151 -1.12631,1.51041 -0.72265,0.8724 -1.28906,1.41276 z" />
      <path
         id="path1129"
         style="font-style:normal;font-variant:normal;font-weight:normal;font-stretch:normal;font-size:13.33333397px;font-family:'Meiryo UI';-inkscape-font-specification:'Meiryo UI';text-align:center;text-anchor:middle"
         d="m 480.45508,125.82292 -0.26042,-0.70964 q 3.18359,-0.69661 5.01302,-2.05078 h -4.77864 v -0.78125 h 5.54687 v -1.05469 h -4.54427 v -0.72265 h 4.54427 v -1.1198 h -4.89583 v -0.77473 h 2.76041 l -0.66406,-1.38672 h -2.57161 v -0.77474 h 1.94661 l -0.78776,-1.66016 0.89844,-0.24088 0.85937,1.90104 h 1.16537 v -2.1224 h 0.95052 v 2.1224 h 1.66016 v -2.1224 h 0.96354 v 2.1224 h 1.23698 l 0.87239,-1.92709 0.92448,0.24089 -0.8789,1.6862 h 2.1289 v 0.77474 h -2.70833 l -0.74219,1.38672 h 2.97526 v 0.77473 h -5.08463 v 1.1198 h 4.73307 v 0.72265 h -4.73307 v 1.05469 h 5.64453 v 0.78125 h -4.84375 q 0.91146,0.57943 2.3763,1.13281 1.47135,0.55339 2.74088,0.78125 l -0.42317,0.84636 q -3.28125,-0.72266 -5.52084,-2.39584 v 2.72136 h -0.95703 v -2.59115 q -0.93099,0.72266 -2.50651,1.3737 -1.57552,0.64453 -3.04036,0.89193 z m 3.75651,-8.60026 0.65755,1.38672 h 3.23568 l 0.66406,-1.38672 z" />
      <path
         id="path1131"
         style="font-style:normal;font-variant:normal;font-weight:normal;font-stretch:normal;font-size:13.33333397px;font-family:'Meiryo UI';-inkscape-font-specification:'Meiryo UI';text-align:center;text-anchor:middle"
         d="m 503.61263,125.52344 h -6.31511 v 0.51432 h -1.01562 v -4.9349 q -1.00912,0.44271 -2.34375,0.89844 l -0.35156,-0.78776 q 3.01432,-1.03515 5.94401,-2.73437 h -5.48177 v -0.78776 h 4.21875 v -1.58203 h -3.50912 v -0.81381 h 3.50912 v -1.13932 h 1.06119 v 1.13932 h 3.16407 v 0.81381 h -3.16407 v 1.58203 h 1.48438 q 2.48047,-1.60808 3.72396,-3.0599 l 0.91146,0.51432 q -0.98959,1.03516 -2.88412,2.4349 l -0.14974,0.11068 h 3.60026 v 0.78776 h -4.91536 q -1.38021,0.85286 -2.5,1.4388 h 6.04166 v 6.11979 h -1.02864 z m 0,-3.32031 v -1.52344 h -6.31511 v 1.52344 z m -6.31511,2.50651 h 6.31511 v -1.71224 h -6.31511 z" />
      <path
         id="path1133"
         style="font-style:normal;font-variant:normal;font-weight:normal;font-stretch:normal;font-size:13.33333397px;font-family:'Meiryo UI';-inkscape-font-specification:'Meiryo UI';text-align:center;text-anchor:middle"
         d="m 517.50586,125.44531 h -6.28255 v 0.55339 h -1.02865 v -3.93229 q -1.35416,0.75521 -2.72135,1.32161 l -0.46224,-0.7487 q 2.74088,-1.09375 4.70052,-2.53906 l 0.22135,-0.16276 q -1.06119,-0.84635 -2.5651,-1.88802 -0.97005,0.72917 -1.88151,1.23047 l -0.52083,-0.61198 q 1.72526,-1.07422 3.09895,-2.36979 1.3737,-1.30209 1.89454,-2.18099 l 1.04817,0.24088 q -0.29297,0.44922 -0.8138,1.0612 h 4.6224 l 0.39062,0.35156 q -1.36719,2.51953 -4.85026,4.95443 h 6.19792 v 5.27344 h -1.04818 z m -7.41536,-7.96224 q 1.73828,1.13282 2.66276,1.82943 2.11588,-1.67969 3.0013,-3.10547 h -4.27735 q -0.65755,0.67057 -1.38671,1.27604 z m 1.13281,7.15495 h 6.28255 v -3.09896 h -6.28255 z" />
      <path
         id="path1135"
         style="font-style:normal;font-variant:normal;font-weight:normal;font-stretch:normal;font-size:13.33333397px;font-family:'Meiryo UI';-inkscape-font-specification:'Meiryo UI';text-align:center;text-anchor:middle"
         d="m 528.43685,125.98568 h -1.58854 l -0.1237,-0.91146 h 1.26302 q 0.29297,0 0.47526,-0.14323 0.1823,-0.14974 0.1823,-0.37109 v -7.41537 h -1.71224 q -0.59245,1.25 -1.1198,1.94662 l -0.73567,-0.44922 q 0.47526,-0.65104 1.04817,-1.98568 0.57292,-1.34115 0.84636,-2.51302 l 1.02864,0.16276 q -0.18229,0.76172 -0.72265,2.0638 h 5.2539 v 0.77474 h -2.85807 v 7.80599 q 0,0.46224 -0.37109,0.7487 -0.36459,0.28646 -0.86589,0.28646 z m -7.84505,-2.73438 -0.59896,-0.5013 q 0.65755,-0.70964 1.36719,-1.91406 0.70963,-1.20443 1.03516,-2.19401 h -1.92709 v -0.77474 h 1.95964 v -2.13542 q -0.98959,0.1888 -1.9336,0.3125 l -0.1888,-0.73568 q 2.80599,-0.3776 4.44662,-0.98958 l 0.37109,0.72917 q -0.71615,0.24088 -1.69271,0.46875 v 2.35026 h 1.43229 v 0.77474 h -1.43229 v 0.82031 q 0.53386,0.65104 1.67318,1.61458 l -0.54037,0.66407 q -0.49479,-0.44271 -1.13281,-1.13933 v 5.49479 h -1.0026 v -5.49479 q -0.95703,1.77735 -1.83594,2.64974 z m 11.60156,0.61198 q -0.40364,-0.86588 -0.83984,-2.22656 -0.4362,-1.36068 -0.63151,-2.34375 l 0.9375,-0.17578 q 0.54036,2.35026 1.49739,4.36849 z m -6.44531,0.013 -0.84635,-0.39062 q 0.52083,-0.85938 1.00911,-2.11589 0.48828,-1.25651 0.65104,-2.20052 l 0.97657,0.16927 q -0.24089,1.15235 -0.76172,2.49349 -0.52084,1.33464 -1.02865,2.04427 z" />
    </g>
    <g
       id="flowRoot945"
       style="font-style:normal;font-weight:normal;font-size:21.33333397px;line-height:1.25;font-family:sans-serif;text-align:center;letter-spacing:0px;word-spacing:0px;text-anchor:middle;fill:#000000;fill-opacity:1;stroke:none"
       transform="matrix(0.26458333,0,0,0.26458333,0,47)"
       aria-label="契約単価">
      <path
         id="path1138"
         style="font-style:normal;font-variant:normal;font-weight:normal;font-stretch:normal;font-size:13.33333397px;font-family:'Meiryo UI';-inkscape-font-specification:'Meiryo UI';text-align:center;text-anchor:middle"
         d="m 360.43131,120.70573 -0.16276,-0.78776 q 0.82032,-0.0911 2.48698,-0.32552 v -1.58203 h -2.02474 v -0.70313 h 2.02474 v -1.28255 h -2.16146 v -0.72917 h 2.16146 v -0.89843 h 1.02214 v 0.89843 h 2.17448 v 0.72917 h -2.17448 v 1.28255 h 1.84896 v 0.70313 h -1.84896 v 1.4388 l 2.14844,-0.31901 0.013,0.70312 q -2.1875,0.48828 -5.50782,0.8724 z m 6.28256,-0.0651 -0.59896,-0.54688 q 0.83333,-0.63151 1.36719,-1.73828 0.54036,-1.10677 0.55338,-2.91016 h -1.52344 v -0.7487 h 5.41016 v 1.6862 q 0,0.85287 -0.0521,1.82943 -0.0521,0.97656 -0.2474,1.41927 -0.19531,0.44271 -0.52734,0.66406 -0.33203,0.22136 -0.78125,0.22787 -0.44271,0.007 -1.22396,0.007 h -0.0456 l -0.11068,-0.8724 q 0.90495,0 1.13281,-0.0195 0.22787,-0.0195 0.44922,-0.19531 0.22135,-0.18229 0.31901,-0.83333 0.0977,-0.65105 0.0977,-1.65365 v -1.51042 h -1.90105 v 0.0456 q 0,3.41796 -2.3177,5.14974 z m -0.46875,2.52604 q -0.69011,1.24349 -2.2461,2.01172 -1.55599,0.76823 -3.30729,0.91145 l -0.2474,-0.77474 q 1.65365,-0.15625 3.00131,-0.83333 1.34765,-0.67708 1.90104,-1.69271 h -5.01953 v -0.82031 h 5.29297 q 0.0195,-0.19531 0.0195,-0.44922 v -0.47526 h 1.07422 q 0,0.2474 -0.026,0.92448 h 5.72917 v 0.82031 h -5.3776 q 0.74218,0.85938 2.10286,1.56901 1.36068,0.70313 2.83854,0.91797 l -0.41015,0.8138 q -3.50261,-0.59244 -5.32552,-2.92317 z" />
      <path
         id="path1140"
         style="font-style:normal;font-variant:normal;font-weight:normal;font-stretch:normal;font-size:13.33333397px;font-family:'Meiryo UI';-inkscape-font-specification:'Meiryo UI';text-align:center;text-anchor:middle"
         d="m 375.82845,126.09635 v -5.55989 q -1.30859,0.0911 -2.18099,0.13021 l -0.11719,-0.82683 0.92448,-0.026 q 0.54037,-0.625 1.13933,-1.39323 -0.93099,-0.96354 -1.97266,-1.91406 l 0.65104,-0.58594 q 0.0716,0.0586 0.24089,0.21485 0.85286,-1.10677 1.30208,-2.01172 l 0.89193,0.33203 q -0.65756,1.04818 -1.63412,2.21354 l 1.05469,1.05469 q 1.04167,-1.39323 1.49088,-2.25261 l 0.92448,0.35808 q -1.41276,2.07031 -3.07291,3.94531 l 2.14192,-0.11719 q -0.21484,-0.66406 -0.33203,-0.97656 l 0.77474,-0.21484 q 0.55339,1.41276 0.7487,2.13541 l -0.83984,0.21485 q -0.0326,-0.14974 -0.13021,-0.46224 -0.52735,0.0651 -0.98958,0.10416 v 5.63802 z m 9.46615,-5.86588 q 0,1.82943 -0.14323,3.08594 -0.14323,1.25 -0.30599,1.65364 -0.16276,0.40365 -0.60547,0.69662 -0.44271,0.29297 -1.02214,0.29948 -0.57942,0.007 -1.77734,0.007 l -0.13672,-0.91146 q 0.57943,0.007 1.01563,0.007 0.66406,0 0.89192,-0.0456 0.23438,-0.0521 0.4362,-0.25391 0.20182,-0.20182 0.32552,-0.60547 0.1237,-0.40364 0.20182,-1.5625 0.0846,-1.16536 0.0846,-3.03385 v -2.94922 h -3.5612 q -0.57291,1.51041 -1.29557,2.53906 l -0.80078,-0.39062 q 1.3151,-2.03125 1.79687,-4.59636 l 1.02865,0.14974 q -0.10417,0.51432 -0.45573,1.53646 h 4.32292 z m -3.56771,1.86849 q -0.97656,-2.5586 -1.32813,-3.25521 l 0.89193,-0.33854 q 0.63151,1.23047 1.3737,3.2487 z m -3.52214,2.2526 -0.4362,-2.76041 0.89844,-0.10417 0.4362,2.72786 z m -3.88672,0.57292 -0.84635,-0.16276 q 0.52734,-1.60156 0.58594,-3.26172 l 0.95052,0.0651 q -0.29948,2.48047 -0.69011,3.35938 z" />
      <path
         id="path1142"
         style="font-style:normal;font-variant:normal;font-weight:normal;font-stretch:normal;font-size:13.33333397px;font-family:'Meiryo UI';-inkscape-font-specification:'Meiryo UI';text-align:center;text-anchor:middle"
         d="m 392.61882,116.46745 q -0.26042,-0.72917 -0.92448,-2.05729 l 0.99609,-0.27344 q 0.41016,0.76823 0.9375,2.04427 z m -0.20183,9.65495 v -2.08334 h -5.50781 v -0.83984 h 5.50781 v -1.23698 h -4.55729 v -5.20833 h 8.03386 q 0.36458,-0.54688 1.41927,-2.50651 l 1.07421,0.35807 q -0.70312,1.14583 -1.4388,2.14844 h 1.15235 v 5.20833 h -4.64844 v 1.23698 h 5.73568 v 0.83984 h -5.73568 v 2.08334 z m 0,-7.11589 v -1.52344 h -3.54817 v 1.52344 z m 1.03516,-1.52344 v 1.52344 h 3.64583 v -1.52344 z m -1.03516,3.74349 v -1.52343 h -3.54817 v 1.52343 z m 1.03516,-1.52343 v 1.52343 h 3.64583 v -1.52343 z m -4.65495,-3.04688 q -0.35156,-0.77474 -1.07422,-1.94661 l 0.92448,-0.35157 q 0.84636,1.36719 1.13281,1.95964 z" />
      <path
         id="path1144"
         style="font-style:normal;font-variant:normal;font-weight:normal;font-stretch:normal;font-size:13.33333397px;font-family:'Meiryo UI';-inkscape-font-specification:'Meiryo UI';text-align:center;text-anchor:middle"
         d="m 401.74642,126.10938 -0.026,-6.82943 q -0.50131,1.24349 -1.33464,2.24609 l -0.61198,-0.50781 q 0.91146,-1.26302 1.81641,-3.49609 0.90495,-2.23959 1.08073,-3.33985 l 1.00911,0.16276 q -0.4362,1.79037 -1.29557,3.64584 h 0.36458 v 8.11849 z m 9.32943,-0.7487 h -6.02865 v 0.55338 h -0.97656 v -8.03385 h 2.32422 v -2.35026 h -2.35026 v -0.76172 h 8.64583 v 0.76172 h -3.04037 v 2.35026 h 2.40235 v 8.02083 h -0.97656 z m -3.72396,-7.48047 h 1.35416 v -2.35026 h -1.35416 z m -2.30469,6.70573 h 1.34766 v -5.95703 h -1.34766 z m 2.30469,0 h 1.35416 v -5.95703 h -1.35416 z m 2.29817,0 h 1.42579 v -5.95703 h -1.42579 z" />
    </g>
    <g
       id="flowRoot937"
       style="font-style:normal;font-weight:normal;font-size:21.33333397px;line-height:1.25;font-family:sans-serif;letter-spacing:0px;word-spacing:0px;fill:#000000;fill-opacity:1;stroke:none"
       transform="matrix(0.26458333,0,0,0.26458333,0,47)"
       aria-label="設備名称">
      <path
         id="path1147"
         style="font-style:normal;font-variant:normal;font-weight:normal;font-stretch:normal;font-size:13.33333397px;font-family:'Meiryo UI';-inkscape-font-specification:'Meiryo UI';text-align:center;text-anchor:middle"
         d="m 253.86458,115.3737 v -0.70964 h 3.60026 v 0.70964 z m 8.56771,0.0391 h -2.22005 v 0.33854 q 0,2.26563 -1.53646,3.50912 l -0.56641,-0.55339 q 1.13933,-1.02213 1.13933,-2.92318 v -1.09375 h 4.17317 v 3.09245 q 0,0.42969 0.42318,0.47526 h 0.57292 q 0.21484,0 0.33854,-0.11067 0.1237,-0.11068 0.15625,-0.33204 0.0391,-0.22786 0.0781,-1.1914 l 0.80079,0.0977 0.007,0.98308 q 0,0.47526 -0.0456,0.63151 -0.0456,0.14974 -0.17578,0.29297 -0.1237,0.14323 -0.30599,0.22786 -0.18229,0.0846 -0.57291,0.1237 -0.38412,0.0326 -0.67058,0.0326 -0.39713,0 -0.76823,-0.0456 -0.37109,-0.0456 -0.59895,-0.29297 -0.22787,-0.2474 -0.22787,-0.59245 z m -9.05599,1.78385 v -0.73567 h 4.47266 v 0.73567 z m 0.5013,1.75131 v -0.73568 h 3.50912 v 0.73568 z m 8.85417,5.0651 q 1.1263,0.67708 2.88411,1.19141 l -0.50781,0.83333 q -1.79687,-0.50781 -3.17057,-1.43229 -1.74479,1.11328 -3.78906,1.47135 l -0.27344,-0.73567 q 1.9401,-0.41016 3.32031,-1.29558 -1.64713,-1.40625 -2.14844,-3.33984 h -0.67057 v -0.78776 h 6.51693 q -0.16927,2.47396 -2.16146,4.09505 z m -0.76823,-0.53385 q 1.48438,-1.23047 1.79037,-2.77344 h -3.73047 q 0.40364,1.54297 1.9401,2.77344 z m -8.08594,-2.77344 v -0.72266 h 3.50912 v 0.72266 z m 0.7487,4.79818 v 0.48828 h -0.89844 v -4.13412 h 3.69792 v 3.64584 z m 1.86198,-2.9362 h -1.86198 v 2.20052 h 1.86198 z" />
      <path
         id="path1149"
         style="font-style:normal;font-variant:normal;font-weight:normal;font-stretch:normal;font-size:13.33333397px;font-family:'Meiryo UI';-inkscape-font-specification:'Meiryo UI';text-align:center;text-anchor:middle"
         d="m 268.22005,126.07682 v -6.64062 q -0.55989,1.00911 -1.29557,1.96614 l -0.66406,-0.48828 q 0.89192,-1.28906 1.77734,-3.33333 0.89193,-2.05078 1.10677,-3.32031 l 1.02865,0.0977 q -0.27344,1.42578 -1.35417,3.84766 h 0.40365 v 7.87109 z m 4.17969,-9.45963 v -0.70964 h -2.1224 v -0.73567 h 2.1224 v -0.83985 h 1.01562 v 0.83985 h 2.39584 v -0.83985 h 1.02213 v 0.83985 h 2.13542 v 0.73567 h -2.13542 v 0.70964 h -1.02213 v -0.70964 h -2.39584 v 0.70964 z m -1.07422,1.26302 v 2.3763 q 0,3.53516 -1.08724,5.59245 l -0.69661,-0.39714 q 0.88541,-2.02474 0.88541,-4.98698 v -3.29427 h 8.64584 v 0.70964 z m 6.26953,5.63151 h -1.77083 v 2.4349 h -0.9375 v -2.4349 h -1.71224 v 2.5651 h -0.95052 v -7.24609 h 6.32161 v 6.25651 q 0,0.35807 -0.29297,0.59245 -0.29296,0.23437 -0.72916,0.23437 h -1.00261 l -0.11067,-0.8138 h 0.70963 q 0.47526,0 0.47526,-0.4362 z m -2.70833,-2.70833 v -1.26303 h -1.71224 v 1.26303 z m 0.9375,-1.26303 v 1.26303 h 1.77083 v -1.26303 z m -2.64974,3.2487 h 1.71224 v -1.29557 h -1.71224 z m 2.64974,0 h 1.77083 v -1.29557 h -1.77083 z" />
      <path
         id="path1151"
         style="font-style:normal;font-variant:normal;font-weight:normal;font-stretch:normal;font-size:13.33333397px;font-family:'Meiryo UI';-inkscape-font-specification:'Meiryo UI';text-align:center;text-anchor:middle"
         d="m 290.4401,125.44531 h -6.28255 v 0.55339 h -1.02864 v -3.93229 q -1.35417,0.75521 -2.72136,1.32161 l -0.46224,-0.7487 q 2.74089,-1.09375 4.70052,-2.53906 l 0.22136,-0.16276 q -1.0612,-0.84635 -2.56511,-1.88802 -0.97005,0.72917 -1.88151,1.23047 l -0.52083,-0.61198 q 1.72526,-1.07422 3.09896,-2.36979 1.3737,-1.30209 1.89453,-2.18099 l 1.04818,0.24088 q -0.29297,0.44922 -0.81381,1.0612 h 4.6224 l 0.39063,0.35156 q -1.36719,2.51953 -4.85027,4.95443 h 6.19792 v 5.27344 h -1.04818 z m -7.41536,-7.96224 q 1.73828,1.13282 2.66276,1.82943 2.11589,-1.67969 3.0013,-3.10547 h -4.27734 q -0.65755,0.67057 -1.38672,1.27604 z m 1.13281,7.15495 h 6.28255 v -3.09896 h -6.28255 z" />
      <path
         id="path1153"
         style="font-style:normal;font-variant:normal;font-weight:normal;font-stretch:normal;font-size:13.33333397px;font-family:'Meiryo UI';-inkscape-font-specification:'Meiryo UI';text-align:center;text-anchor:middle"
         d="m 301.37109,125.98568 h -1.58854 l -0.1237,-0.91146 h 1.26302 q 0.29297,0 0.47526,-0.14323 0.1823,-0.14974 0.1823,-0.37109 v -7.41537 h -1.71224 q -0.59245,1.25 -1.1198,1.94662 l -0.73567,-0.44922 q 0.47526,-0.65104 1.04817,-1.98568 0.57292,-1.34115 0.84636,-2.51302 l 1.02864,0.16276 q -0.18229,0.76172 -0.72265,2.0638 h 5.25391 v 0.77474 h -2.85808 v 7.80599 q 0,0.46224 -0.37109,0.7487 -0.36459,0.28646 -0.86589,0.28646 z m -7.84505,-2.73438 -0.59896,-0.5013 q 0.65755,-0.70964 1.36719,-1.91406 0.70964,-1.20443 1.03516,-2.19401 h -1.92709 v -0.77474 h 1.95964 v -2.13542 q -0.98959,0.1888 -1.9336,0.3125 l -0.1888,-0.73568 q 2.80599,-0.3776 4.44662,-0.98958 l 0.37109,0.72917 q -0.71615,0.24088 -1.69271,0.46875 v 2.35026 h 1.43229 v 0.77474 h -1.43229 v 0.82031 q 0.53386,0.65104 1.67318,1.61458 l -0.54037,0.66407 q -0.49479,-0.44271 -1.13281,-1.13933 v 5.49479 h -1.0026 v -5.49479 q -0.95703,1.77735 -1.83594,2.64974 z m 11.60156,0.61198 q -0.40364,-0.86588 -0.83984,-2.22656 -0.4362,-1.36068 -0.63151,-2.34375 l 0.9375,-0.17578 q 0.54036,2.35026 1.4974,4.36849 z m -6.44531,0.013 -0.84635,-0.39062 q 0.52083,-0.85938 1.00911,-2.11589 0.48828,-1.25651 0.65104,-2.20052 l 0.97657,0.16927 q -0.24089,1.15235 -0.76172,2.49349 -0.52084,1.33464 -1.02865,2.04427 z" />
    </g>
    <g
       id="flowRoot927"
       style="font-style:normal;font-weight:normal;font-size:21.33333397px;line-height:1.25;font-family:sans-serif;letter-spacing:0px;word-spacing:0px;fill:#000000;fill-opacity:1;stroke:none"
       transform="matrix(0.26458333,0,0,0.26458333,0,47)"
       aria-label="設備タイプ名称">
      <path
         id="path1156"
         style="font-style:normal;font-variant:normal;font-weight:normal;font-stretch:normal;font-size:13.33333397px;font-family:'Meiryo UI';-inkscape-font-specification:'Meiryo UI';text-align:center;text-anchor:middle"
         d="m 107.88411,115.3737 v -0.70964 h 3.60026 v 0.70964 z m 8.56771,0.0391 h -2.22005 v 0.33854 q 0,2.26563 -1.53646,3.50912 l -0.56641,-0.55339 q 1.13933,-1.02213 1.13933,-2.92318 v -1.09375 h 4.17317 v 3.09245 q 0,0.42969 0.42318,0.47526 h 0.57292 q 0.21484,0 0.33854,-0.11067 0.1237,-0.11068 0.15625,-0.33204 0.0391,-0.22786 0.0781,-1.1914 l 0.80078,0.0977 0.007,0.98308 q 0,0.47526 -0.0456,0.63151 -0.0456,0.14974 -0.17578,0.29297 -0.1237,0.14323 -0.30599,0.22786 -0.18229,0.0846 -0.57291,0.1237 -0.38412,0.0326 -0.67058,0.0326 -0.39713,0 -0.76823,-0.0456 -0.37109,-0.0456 -0.59895,-0.29297 -0.22787,-0.2474 -0.22787,-0.59245 z m -9.05599,1.78385 v -0.73567 h 4.47266 v 0.73567 z m 0.5013,1.75131 v -0.73568 h 3.50912 v 0.73568 z m 8.85417,5.0651 q 1.1263,0.67708 2.88412,1.19141 l -0.50782,0.83333 q -1.79687,-0.50781 -3.17057,-1.43229 -1.74479,1.11328 -3.78906,1.47135 l -0.27344,-0.73567 q 1.9401,-0.41016 3.32031,-1.29558 -1.64713,-1.40625 -2.14844,-3.33984 h -0.67057 v -0.78776 h 6.51693 q -0.16927,2.47396 -2.16146,4.09505 z m -0.76823,-0.53385 q 1.48438,-1.23047 1.79037,-2.77344 h -3.73047 q 0.40364,1.54297 1.9401,2.77344 z m -8.08594,-2.77344 v -0.72266 h 3.50912 v 0.72266 z m 0.7487,4.79818 v 0.48828 h -0.89844 v -4.13412 h 3.69792 v 3.64584 z m 1.86198,-2.9362 h -1.86198 v 2.20052 h 1.86198 z" />
      <path
         id="path1158"
         style="font-style:normal;font-variant:normal;font-weight:normal;font-stretch:normal;font-size:13.33333397px;font-family:'Meiryo UI';-inkscape-font-specification:'Meiryo UI';text-align:center;text-anchor:middle"
         d="m 122.23958,126.07682 v -6.64062 q -0.55989,1.00911 -1.29557,1.96614 l -0.66406,-0.48828 q 0.89192,-1.28906 1.77734,-3.33333 0.89193,-2.05078 1.10677,-3.32031 l 1.02865,0.0977 q -0.27344,1.42578 -1.35417,3.84766 h 0.40365 v 7.87109 z m 4.17969,-9.45963 v -0.70964 h -2.1224 v -0.73567 h 2.1224 v -0.83985 h 1.01562 v 0.83985 h 2.39584 v -0.83985 h 1.02213 v 0.83985 h 2.13542 v 0.73567 h -2.13542 v 0.70964 h -1.02213 v -0.70964 h -2.39584 v 0.70964 z m -1.07422,1.26302 v 2.3763 q 0,3.53516 -1.08724,5.59245 l -0.69661,-0.39714 q 0.88541,-2.02474 0.88541,-4.98698 v -3.29427 h 8.64584 v 0.70964 z m 6.26953,5.63151 h -1.77083 v 2.4349 h -0.9375 v -2.4349 h -1.71224 v 2.5651 h -0.95052 v -7.24609 h 6.32161 v 6.25651 q 0,0.35807 -0.29297,0.59245 -0.29296,0.23437 -0.72916,0.23437 h -1.00261 l -0.11067,-0.8138 h 0.70963 q 0.47526,0 0.47526,-0.4362 z m -2.70833,-2.70833 v -1.26303 h -1.71224 v 1.26303 z m 0.9375,-1.26303 v 1.26303 h 1.77083 v -1.26303 z m -2.64974,3.2487 h 1.71224 v -1.29557 h -1.71224 z m 2.64974,0 h 1.77083 v -1.29557 h -1.77083 z" />
      <path
         id="path1160"
         style="font-style:normal;font-variant:normal;font-weight:normal;font-stretch:normal;font-size:13.33333397px;font-family:'Meiryo UI';-inkscape-font-specification:'Meiryo UI';text-align:center;text-anchor:middle"
         d="m 138.26823,114.73568 q -0.16927,0.67057 -0.3711,1.26953 h 4.39454 q -0.0326,0.65755 -0.14323,1.62109 -0.10417,0.96354 -0.39714,2.02474 -0.29297,1.05469 -0.78125,2.03776 -0.48828,0.98308 -1.22396,1.82292 -0.73567,0.83984 -1.66666,1.4388 -0.92448,0.59245 -2.06381,0.94401 l -0.3125,-0.89193 q 2.51303,-0.90494 3.82813,-3.0013 0.0716,-0.1237 0.14323,-0.24088 -1.34115,-0.95703 -2.94922,-1.71875 l 0.50781,-0.77474 q 1.28255,0.55989 2.91016,1.5625 0.76172,-1.72526 0.9375,-3.95834 h -3.50261 q -0.0716,0.16276 -0.13671,0.31901 -0.48178,1.08724 -1.34115,2.25261 -0.85286,1.16536 -1.70573,1.82943 l -0.53385,-0.70964 q 1.23047,-1.11979 2.10937,-2.77344 0.87891,-1.66015 1.22396,-3.19661 z" />
      <path
         id="path1162"
         style="font-style:normal;font-variant:normal;font-weight:normal;font-stretch:normal;font-size:13.33333397px;font-family:'Meiryo UI';-inkscape-font-specification:'Meiryo UI';text-align:center;text-anchor:middle"
         d="m 148.90625,125.89453 h -1.15885 v -6.28906 q -1.69271,1.21094 -4.20573,2.07682 l -0.34506,-0.89193 q 3.02735,-1.08723 4.77214,-2.72786 1.7513,-1.64062 2.63021,-3.39193 l 1.06771,0.41667 q -1.06771,1.95312 -2.76042,3.55469 z" />
      <path
         id="path1164"
         style="font-style:normal;font-variant:normal;font-weight:normal;font-stretch:normal;font-size:13.33333397px;font-family:'Meiryo UI';-inkscape-font-specification:'Meiryo UI';text-align:center;text-anchor:middle"
         d="m 160.78776,115.4974 q 0,2.36328 -0.61849,4.69401 -0.61849,2.33073 -2.38281,3.8151 -1.75781,1.48438 -4.44011,1.83594 l -0.20182,-0.98307 q 2.53255,-0.32553 4.39453,-2.1224 1.86849,-1.80339 2.07683,-6.28255 h -6.64714 v -0.95703 z m -0.70312,-0.60547 q 0,-0.58594 0.42968,-0.98308 0.4362,-0.39713 1.00912,-0.39713 0.63802,0 1.04167,0.41667 0.41015,0.41015 0.41015,0.95703 0,0.625 -0.4362,1.02213 -0.43619,0.39714 -0.98958,0.39714 -0.63802,0 -1.05469,-0.41667 -0.41015,-0.42318 -0.41015,-0.99609 z m 1.4388,0.95052 q 0.38411,0 0.66406,-0.27995 0.28646,-0.27995 0.28646,-0.65755 0,-0.37761 -0.27995,-0.65104 -0.27995,-0.27995 -0.67057,-0.27995 -0.36458,0 -0.65104,0.27995 -0.28646,0.27343 -0.28646,0.65104 0,0.3776 0.27995,0.65755 0.28645,0.27995 0.65755,0.27995 z" />
      <path
         id="path1166"
         style="font-style:normal;font-variant:normal;font-weight:normal;font-stretch:normal;font-size:13.33333397px;font-family:'Meiryo UI';-inkscape-font-specification:'Meiryo UI';text-align:center;text-anchor:middle"
         d="m 173.36589,125.44531 h -6.28256 v 0.55339 h -1.02864 v -3.93229 q -1.35417,0.75521 -2.72136,1.32161 l -0.46224,-0.7487 q 2.74089,-1.09375 4.70052,-2.53906 l 0.22136,-0.16276 q -1.0612,-0.84635 -2.56511,-1.88802 -0.97005,0.72917 -1.88151,1.23047 l -0.52083,-0.61198 q 1.72526,-1.07422 3.09896,-2.36979 1.3737,-1.30209 1.89453,-2.18099 l 1.04818,0.24088 q -0.29297,0.44922 -0.81381,1.0612 h 4.6224 l 0.39063,0.35156 q -1.36719,2.51953 -4.85026,4.95443 h 6.19791 v 5.27344 h -1.04817 z m -7.41537,-7.96224 q 1.73828,1.13282 2.66276,1.82943 2.11589,-1.67969 3.0013,-3.10547 h -4.27734 q -0.65755,0.67057 -1.38672,1.27604 z m 1.13281,7.15495 h 6.28256 v -3.09896 h -6.28256 z" />
      <path
         id="path1168"
         style="font-style:normal;font-variant:normal;font-weight:normal;font-stretch:normal;font-size:13.33333397px;font-family:'Meiryo UI';-inkscape-font-specification:'Meiryo UI';text-align:center;text-anchor:middle"
         d="m 184.29687,125.98568 h -1.58854 l -0.1237,-0.91146 h 1.26302 q 0.29297,0 0.47527,-0.14323 0.18229,-0.14974 0.18229,-0.37109 v -7.41537 h -1.71224 q -0.59245,1.25 -1.11979,1.94662 l -0.73568,-0.44922 q 0.47526,-0.65104 1.04818,-1.98568 0.57291,-1.34115 0.84635,-2.51302 l 1.02865,0.16276 q -0.1823,0.76172 -0.72266,2.0638 h 5.25391 v 0.77474 h -2.85808 v 7.80599 q 0,0.46224 -0.37109,0.7487 -0.36458,0.28646 -0.86589,0.28646 z m -7.84505,-2.73438 -0.59896,-0.5013 q 0.65755,-0.70964 1.36719,-1.91406 0.70964,-1.20443 1.03516,-2.19401 h -1.92709 v -0.77474 h 1.95964 v -2.13542 q -0.98958,0.1888 -1.9336,0.3125 l -0.1888,-0.73568 q 2.80599,-0.3776 4.44662,-0.98958 l 0.37109,0.72917 q -0.71614,0.24088 -1.69271,0.46875 v 2.35026 h 1.43229 v 0.77474 h -1.43229 v 0.82031 q 0.53386,0.65104 1.67318,1.61458 l -0.54036,0.66407 q -0.4948,-0.44271 -1.13282,-1.13933 v 5.49479 h -1.0026 v -5.49479 q -0.95703,1.77735 -1.83594,2.64974 z m 11.60156,0.61198 q -0.40364,-0.86588 -0.83984,-2.22656 -0.4362,-1.36068 -0.63151,-2.34375 l 0.9375,-0.17578 q 0.54036,2.35026 1.4974,4.36849 z m -6.44531,0.013 -0.84635,-0.39062 q 0.52083,-0.85938 1.00911,-2.11589 0.48828,-1.25651 0.65104,-2.20052 l 0.97657,0.16927 q -0.24089,1.15235 -0.76172,2.49349 -0.52084,1.33464 -1.02865,2.04427 z" />
    </g>
    <g
       id="flowRoot1096"
       style="font-style:normal;font-weight:normal;font-size:13.33333397px;line-height:14.92913437px;font-family:sans-serif;text-align:center;letter-spacing:0px;word-spacing:0px;text-anchor:middle;fill:#000000;fill-opacity:1;stroke:none"
       transform="matrix(0.26458333,0,0,0.26458333,0,47)"
       aria-label="設備
行番">
      <path
         id="path1171"
         style="font-style:normal;font-variant:normal;font-weight:normal;font-stretch:normal;font-family:'Meiryo UI';-inkscape-font-specification:'Meiryo UI'"
         d="m 45.245768,109.00233 v -0.70964 h 3.60026 v 0.70964 z m 8.567708,0.0391 h -2.220052 v 0.33854 q 0,2.26563 -1.536458,3.50912 L 49.49056,112.3357 q 1.139322,-1.02213 1.139322,-2.92318 v -1.09375 h 4.173178 v 3.09245 q 0,0.42969 0.423177,0.47526 h 0.572917 q 0.214843,0 0.338541,-0.11067 0.123698,-0.11068 0.15625,-0.33204 0.03906,-0.22786 0.07813,-1.1914 l 0.800782,0.0977 0.0065,0.98308 q 0,0.47526 -0.04557,0.63151 -0.04557,0.14974 -0.175781,0.29297 -0.123698,0.14323 -0.30599,0.22786 -0.182291,0.0846 -0.572917,0.1237 -0.384114,0.0326 -0.670572,0.0326 -0.397136,0 -0.76823,-0.0456 -0.371093,-0.0456 -0.598958,-0.29297 -0.227865,-0.2474 -0.227865,-0.59245 z m -9.05599,1.78385 v -0.73567 h 4.472657 v 0.73567 z m 0.501302,1.75131 v -0.73568 h 3.509115 v 0.73568 z m 8.854168,5.0651 q 1.126302,0.67708 2.884114,1.19141 l -0.507812,0.83333 q -1.796875,-0.50781 -3.170573,-1.43229 -1.744792,1.11328 -3.789063,1.47135 l -0.273437,-0.73567 q 1.940104,-0.41016 3.320312,-1.29558 -1.647135,-1.40625 -2.148437,-3.33984 h -0.670573 v -0.78776 h 6.516927 q -0.169271,2.47396 -2.161458,4.09505 z m -0.76823,-0.53385 q 1.484375,-1.23047 1.790365,-2.77344 h -3.730469 q 0.403646,1.54297 1.940104,2.77344 z m -8.085938,-2.77344 v -0.72266 h 3.509115 v 0.72266 z m 0.748698,4.79818 v 0.48828 h -0.898437 v -4.13412 h 3.697917 v 3.64584 z m 1.86198,-2.9362 h -1.86198 v 2.20052 h 1.86198 z" />
      <path
         id="path1173"
         style="font-style:normal;font-variant:normal;font-weight:normal;font-stretch:normal;font-family:'Meiryo UI';-inkscape-font-specification:'Meiryo UI'"
         d="m 59.601237,119.70545 v -6.64062 q -0.559896,1.00911 -1.295573,1.96614 l -0.664062,-0.48828 q 0.891927,-1.28906 1.777343,-3.33333 0.891928,-2.05078 1.106771,-3.32031 l 1.028646,0.0977 q -0.273437,1.42578 -1.354167,3.84766 h 0.403646 v 7.87109 z m 4.179688,-9.45963 v -0.70964 h -2.122396 v -0.73568 h 2.122396 v -0.83984 h 1.015625 v 0.83984 h 2.395833 v -0.83984 h 1.022136 v 0.83984 h 2.135417 v 0.73568 h -2.135417 v 0.70964 h -1.022136 v -0.70964 H 64.79655 v 0.70964 z m -1.074219,1.26302 v 2.3763 q 0,3.53516 -1.08724,5.59245 l -0.696614,-0.39714 q 0.885416,-2.02474 0.885416,-4.98698 v -3.29427 h 8.645834 v 0.70964 z m 6.269532,5.63151 h -1.770834 v 2.43489 h -0.9375 v -2.43489 h -1.71224 v 2.5651 h -0.95052 v -7.24609 h 6.321614 v 6.25651 q 0,0.35807 -0.292968,0.59245 -0.292969,0.23437 -0.729167,0.23437 h -1.002604 l -0.110677,-0.8138 h 0.709635 q 0.475261,0 0.475261,-0.4362 z m -2.708334,-2.70833 v -1.26303 h -1.71224 v 1.26303 z m 0.9375,-1.26303 v 1.26303 h 1.770834 v -1.26303 z m -2.64974,3.2487 h 1.71224 v -1.29557 h -1.71224 z m 2.64974,0 h 1.770834 v -1.29557 h -1.770834 z" />
      <path
         id="path1175"
         style="font-style:normal;font-variant:normal;font-weight:normal;font-stretch:normal;font-family:'Meiryo UI';-inkscape-font-specification:'Meiryo UI'"
         d="m 45.187174,128.06558 -0.553386,-0.65105 q 1.562501,-1.10026 2.760417,-2.95573 l 0.963542,0.35808 q -0.63151,0.93099 -1.542969,1.86198 -0.904948,0.93099 -1.627604,1.38672 z m 4.654948,-2.23308 v -0.82682 h 6.686198 v 0.82682 z m -3.222656,10.41016 v -5.36458 q -0.872396,1.00911 -1.673178,1.66015 l -0.63151,-0.58594 q 1.028646,-0.87239 2.03125,-2.21354 1.009115,-1.34114 1.536459,-2.42187 l 0.976562,0.27343 q -0.585937,1.13282 -1.582031,2.46094 h 0.371094 v 6.19141 z m 6.933594,-0.18229 h -2.02474 l -0.110677,-0.95052 h 1.621094 q 0.540364,0 0.540364,-0.44922 v -5.08464 h -4.433594 v -0.8138 h 7.942709 v 0.8138 h -2.421875 v 5.52084 q 0,0.43619 -0.338542,0.69661 -0.332031,0.26693 -0.774739,0.26693 z" />
      <path
         id="path1177"
         style="font-style:normal;font-variant:normal;font-weight:normal;font-stretch:normal;font-family:'Meiryo UI';-inkscape-font-specification:'Meiryo UI'"
         d="m 58.155925,131.46401 -0.390626,-0.67708 q 2.421876,-0.78125 4.557292,-2.49349 h -4.192708 v -0.74219 h 2.740885 q -0.416666,-0.82682 -0.670573,-1.24349 l 0.852865,-0.22786 q 0.266927,0.41666 0.800781,1.47135 h 1.796875 v -1.77734 q -2.096354,0.0716 -4.433594,0.0716 l -0.123697,-0.74218 h 1.080729 q 2.376302,0 3.75,-0.0716 1.380208,-0.0781 2.714844,-0.1888 1.334635,-0.11719 1.979167,-0.2474 l 0.449218,0.7487 q -1.653646,0.24089 -3.684896,0.35156 l -0.709635,0.0391 v 1.8164 h 1.901042 q 0.455729,-0.70312 0.957031,-1.62109 l 0.950521,0.27344 q -0.390625,0.625 -0.911459,1.34765 h 2.675782 v 0.74219 h -4.316407 q 0.885417,0.70312 2.421875,1.39974 1.536459,0.69661 2.376303,0.91797 l -0.507813,0.76172 q -1.542969,-0.51433 -3.072917,-1.36719 -1.523437,-0.85286 -2.356771,-1.71224 h -0.117187 v 2.15495 h -1.022136 v -2.15495 h -0.117187 q -0.787761,0.85286 -2.272136,1.72526 -1.484375,0.86589 -3.105468,1.44531 z m 9.739583,4.24479 h -7.408854 v 0.44922 h -0.983073 v -5.15625 h 9.401042 v 5.15625 h -1.009115 z m 0,-2.74739 v -1.26302 h -3.209635 v 1.26302 z m -4.231771,-1.26302 h -3.177083 v 1.26302 h 3.177083 z m -3.177083,3.3138 h 3.177083 v -1.35417 h -3.177083 z m 4.199219,0 h 3.209635 v -1.35417 h -3.209635 z" />
    </g>
    <g
       id="flowRoot901"
       style="font-style:normal;font-weight:normal;font-size:26.66666794px;line-height:1.25;font-family:sans-serif;text-align:center;letter-spacing:0px;word-spacing:0px;text-anchor:middle;fill:#000000;fill-opacity:1;stroke:none"
       transform="matrix(0.26458333,0,0,0.26458333,0,47)"
       aria-label="契約者台帳">
      <path
         id="path1180"
         style="font-style:normal;font-variant:normal;font-weight:normal;font-stretch:normal;font-family:'Meiryo UI';-inkscape-font-specification:'Meiryo UI'"
         d="m 617.10351,58.248048 -0.32552,-1.575521 q 1.64063,-0.182292 4.97396,-0.651042 v -3.164063 h -4.04948 v -1.40625 h 4.04948 v -2.565104 h -4.32292 v -1.458333 h 4.32292 V 45.63086 h 2.04427 v 1.796875 h 4.34896 v 1.458333 h -4.34896 v 2.565104 h 3.69792 v 1.40625 h -3.69792 v 2.877605 l 4.29688,-0.638021 0.026,1.40625 q -4.375,0.976563 -11.01563,1.744792 z m 12.56511,-0.130209 -1.19792,-1.09375 q 1.66667,-1.263021 2.73438,-3.476562 1.08072,-2.213542 1.10677,-5.820313 h -3.04688 v -1.497396 h 10.82031 v 3.372396 q 0,1.705729 -0.10416,3.658854 -0.10417,1.953125 -0.49479,2.838542 -0.39063,0.885417 -1.05469,1.328125 -0.66406,0.442709 -1.5625,0.455729 -0.88542,0.01302 -2.44792,0.01302 h -0.0911 l -0.22136,-1.744792 q 1.8099,0 2.26563,-0.03906 0.45573,-0.03906 0.89843,-0.390625 0.44271,-0.364583 0.63803,-1.666667 0.19531,-1.302083 0.19531,-3.307292 v -3.020833 h -3.80209 v 0.09115 q 0,6.835938 -4.63541,10.299479 z m -0.9375,5.052084 q -1.38021,2.486979 -4.49219,4.023438 -3.11198,1.536458 -6.61458,1.822916 l -0.4948,-1.549479 q 3.3073,-0.3125 6.00261,-1.666667 2.69531,-1.354166 3.80208,-3.385416 H 616.89518 V 60.77409 h 10.58594 q 0.0391,-0.390626 0.0391,-0.898438 v -0.950521 h 2.14844 q 0,0.494792 -0.0521,1.848959 h 11.45834 v 1.640625 h -10.75521 q 1.48437,1.71875 4.20573,3.138021 2.72135,1.40625 5.67708,1.835937 l -0.82031,1.627604 q -7.00521,-1.184895 -10.65104,-5.846354 z" />
      <path
         id="path1182"
         style="font-style:normal;font-variant:normal;font-weight:normal;font-stretch:normal;font-family:'Meiryo UI';-inkscape-font-specification:'Meiryo UI'"
         d="M 647.89778,69.029298 V 57.909506 q -2.61718,0.182292 -4.36197,0.260417 l -0.23438,-1.653646 1.84896,-0.05208 q 1.08073,-1.25 2.27864,-2.786458 -1.86197,-1.927083 -3.94531,-3.828125 l 1.30209,-1.171875 q 0.14322,0.117187 0.48177,0.429687 1.70573,-2.213541 2.60416,-4.023437 l 1.78386,0.664062 q -1.31511,2.096354 -3.26823,4.427084 l 2.10937,2.109375 q 2.08334,-2.786459 2.98177,-4.505209 l 1.84896,0.716146 q -2.82552,4.140625 -6.14583,7.890625 l 4.28385,-0.234375 q -0.42968,-1.328125 -0.66406,-1.953125 l 1.54948,-0.429687 q 1.10677,2.825521 1.4974,4.270833 l -1.67969,0.429688 q -0.0651,-0.299479 -0.26042,-0.924479 -1.05469,0.130208 -1.97917,0.208333 v 11.276042 z m 18.9323,-11.731771 q 0,3.658854 -0.28646,6.171875 -0.28646,2.5 -0.61198,3.307292 -0.32552,0.807292 -1.21094,1.393229 -0.88541,0.585938 -2.04427,0.598959 -1.15885,0.01302 -3.55469,0.01302 l -0.27343,-1.822916 q 1.15885,0.01302 2.03125,0.01302 1.32812,0 1.78385,-0.09114 0.46875,-0.104167 0.8724,-0.507813 0.40364,-0.403646 0.65104,-1.210937 0.24739,-0.807292 0.40364,-3.125001 0.16927,-2.330729 0.16927,-6.067708 v -5.898438 h -7.12239 q -1.14583,3.020833 -2.59115,5.078125 l -1.60156,-0.78125 q 2.63021,-4.0625 3.59375,-9.192709 l 2.05729,0.29948 q -0.20833,1.028645 -0.91146,3.072916 h 8.64584 z m -7.13542,3.736979 q -1.95312,-5.117188 -2.65625,-6.510417 l 1.78385,-0.677083 q 1.26303,2.460937 2.7474,6.497396 z m -7.04427,4.505209 -0.8724,-5.520834 1.79688,-0.208333 0.87239,5.455729 z m -7.77344,1.145833 -1.69271,-0.325521 q 1.05469,-3.203125 1.17188,-6.523438 l 1.90104,0.130209 q -0.59896,4.960938 -1.38021,6.71875 z" />
      <path
         id="path1184"
         style="font-style:normal;font-variant:normal;font-weight:normal;font-stretch:normal;font-family:'Meiryo UI';-inkscape-font-specification:'Meiryo UI'"
         d="m 689.73372,67.883465 h -12.6302 v 1.028646 h -2.03125 v -9.869792 q -2.01823,0.885416 -4.6875,1.796875 l -0.70313,-1.575521 q 6.02865,-2.070313 11.88802,-5.46875 h -10.96354 v -1.575521 h 8.4375 v -3.164063 h -7.01823 v -1.627604 h 7.01823 v -2.278646 h 2.1224 v 2.278646 h 6.32812 v 1.627604 h -6.32812 v 3.164063 h 2.96875 q 4.96093,-3.216146 7.44791,-6.119792 l 1.82292,1.028646 q -1.97917,2.070312 -5.76823,4.869791 l -0.29948,0.221355 h 7.20052 v 1.575521 h -9.83073 q -2.76041,1.705729 -5,2.877604 h 12.08334 v 12.239584 h -2.0573 z m 0,-6.640625 v -3.046876 h -12.6302 v 3.046876 z m -12.6302,5.013021 h 12.6302 v -3.42448 h -12.6302 z" />
      <path
         id="path1186"
         style="font-style:normal;font-variant:normal;font-weight:normal;font-stretch:normal;font-family:'Meiryo UI';-inkscape-font-specification:'Meiryo UI'"
         d="m 721.60872,55.044923 -1.74479,1.25 q -0.82031,-1.09375 -1.99219,-2.434896 -1.44531,0.15625 -4.02344,0.338541 l -6.58854,0.416667 -6.40625,0.351563 -3.94531,0.15625 -0.32552,-1.796876 h 0.23437 q 1.58855,0 3.86719,-0.07813 3.3724,-5.260416 4.41406,-7.838542 l 2.20053,0.520834 q -1.73178,3.476562 -4.42709,7.226563 8.65886,-0.351563 13.64584,-0.807292 -2.38282,-2.591146 -3.63282,-3.619792 l 1.62761,-1.080729 q 1.17187,0.9375 3.5026,3.398438 2.33073,2.447916 3.59375,3.997396 z m -3.26823,13.710938 h -2.00521 v -1.119792 h -15.03906 v 1.119792 h -1.96614 V 57.714194 h 19.01041 z m -2.00521,-2.747396 v -6.718751 h -15.03906 v 6.718751 z" />
      <path
         id="path1188"
         style="font-style:normal;font-variant:normal;font-weight:normal;font-stretch:normal;font-family:'Meiryo UI';-inkscape-font-specification:'Meiryo UI'"
         d="M 727.4681,69.081382 V 50.722006 h -2.12239 V 63.28711 h -1.7448 V 49.302735 h 3.86719 v -3.867188 h 1.92708 v 3.867188 h 3.84115 v 7.695313 h 2.22656 V 46.034505 h 11.47136 v 1.471355 h -9.51823 v 2.148437 h 8.73698 v 1.445313 h -8.73698 v 2.096354 h 8.73698 v 1.40625 h -8.73698 v 2.395834 h 10.50781 v 1.497396 h -6.53646 q 0.69011,2.226562 1.8099,3.867187 1.91406,-1.484375 3.05989,-2.695312 l 1.39323,1.145833 q -1.47135,1.276042 -3.5677,2.708333 1.84895,2.239584 4.40104,3.945313 l -1.35417,1.367188 q -2.42187,-1.5625 -4.51823,-4.179688 -2.08333,-2.630208 -3.00781,-6.158854 h -2.1875 v 8.046875 q 3.33333,-0.46875 4.81771,-0.78125 l 0.19531,1.497396 q -3.89323,0.872396 -9.38802,1.523437 l -0.40365,-1.640625 q 1.5625,-0.169271 2.82552,-0.325521 v -8.320312 h -2.22656 v 2.916666 q 0,1.54948 -1.82292,1.54948 h -1.26302 l -0.35156,-1.640625 h 0.84635 q 0.84636,0 0.84636,-0.677084 v -9.921875 h -2.09636 v 18.359376 z" />
    </g>
  </g>
</svg>
